<?xml version="1.0" encoding="utf-8"?>
<!-- Generator: Adobe Illustrator 27.5.0, SVG Export Plug-In . SVG Version: 6.00 Build 0)  -->
<svg version="1.1" id="Слой_1" xmlns="http://www.w3.org/2000/svg" xmlns:xlink="http://www.w3.org/1999/xlink" x="0px" y="0px"
	 viewBox="0 0 3000 2000" style="enable-background:new 0 0 3000 2000;" xml:space="preserve">
<rect style="fill:#FFFFFF;" width="3000" height="2000"/>
<g>
	<g>
		<path style="fill:#EBF3FA;" d="M383.449,1712.941c0,0-309.763-332.587-52.386-692.66
			C559.426,700.8,825.674,722.639,1021.015,852.287c83.199,55.219,323.069,6.806,527.23-318.278
			c278.419-443.326,1243.521-174.448,1067.552,507.621c-85.156,330.073,259.164,342.07,83.72,672.012L383.449,1712.941z"/>
		<path style="fill:#A8D29F;" d="M978.32,1069.972c0,0-153.242-218.13-213.129-189.853
			C705.303,908.396,978.32,1069.972,978.32,1069.972z"/>
		<path style="fill:#A8D29F;" d="M968.575,1011.359c0,0-23.407-164.013-60.308-157.578
			C871.366,860.216,968.575,1011.359,968.575,1011.359z"/>
		<g>
			<path style="fill:#82B378;" d="M839.017,1522.557c0,0,14.729-72.98-42.474-82.151c0,0-38.798-1.354-61.642,13.278
				c0,0,64.878,37.456,57.163,49.097c-7.715,11.642-69.284-46.948-69.284-46.948s-69.55,30.462-85.073,52.523
				c0,0,82.187,14.645,71.844,24.028c-10.344,9.384-96.574-1.883-96.574-1.883s-55.567,44.756-31.365,80.386
				c24.202,35.63,51.822,35.376,60.565,29.185c8.743-6.191,51.54-57.349,56.982-50.392c5.442,6.958-13.391,50.153-35.67,64.129
				c0,0,69.965,23.557,91.039-6.296c21.074-29.854,11.327-53.067,24.686-71.28c13.358-18.211,28.68-26.745,25.943-14.253
				c-2.737,12.492-30.66,38.746-30.781,62.619c-0.121,23.873-2.487,41.251,24.778,20.141c27.266-21.11,63.484-69.925,51.673-96.054
				C839.017,1522.557,839.017,1522.557,839.017,1522.557z"/>
			<g>
				<path style="fill:#82B378;" d="M612.348,1595.041c0,0,163.19-99.604,226.669-72.484c0,0,21.775,19.845,59.251,28.056
					l9.856,8.465c0,0-45.925-14.326-57.296-10.392C850.828,1548.686,833.987,1480.559,612.348,1595.041z"/>
				<path style="fill:#82B378;" d="M898.268,1550.612c0,0,50.589,6.475,79.504,52.39l-6.172,4.211c0,0-38.76-42.524-70.111-50.106
					C870.137,1549.524,898.268,1550.612,898.268,1550.612z"/>
			</g>
		</g>
		<g>
			<path style="fill:#A8D29F;" d="M888.969,1309.607c0,0,118.501-66.36,63.2-156.421c0,0-44.24-55.301-91.64-69.521
				c0,0,25.28,134.301,0,137.461c-25.28,3.16-17.38-151.681-17.38-151.681s-124.82-60.041-173.801-55.301
				c0,0,77.421,131.141,52.141,127.98s-112.181-135.88-112.181-135.88s-127.98-23.701-148.52,52.14
				c-20.54,75.841,12.64,113.761,31.6,118.501c18.96,4.739,140.621,3.16,137.46,18.96s-85.32,41.08-131.141,26.86
				c0,0,50.561,124.82,116.921,118.5c66.36-6.32,86.9-47.4,127.981-50.561c41.08-3.159,71.1,7.9,50.56,18.961
				c-20.54,11.06-90.061,3.624-123.241,31.832c-33.18,28.208-60.04,45.588,1.58,58.228c61.62,12.641,172.221,4.74,194.341-42.66
				C888.969,1309.607,888.969,1309.607,888.969,1309.607z"/>
			<g>
				<path style="fill:#82B378;" d="M519.247,1082.086c0,0,331.802,107.44,369.722,227.521c0,0-1.58,53.72,31.601,115.34v23.7
					c0,0-34.76-80.58-53.721-91.641C866.849,1357.007,941.109,1252.727,519.247,1082.086z"/>
				<path style="fill:#82B378;" d="M920.569,1424.947c0,0,51.169,77.703,21.998,172.289l-13.165-3.535
					c0,0,12.779-104.182-13.993-156.578C888.639,1384.725,920.569,1424.947,920.569,1424.947z"/>
			</g>
		</g>
		<path style="fill:#ED7D2B;" d="M1009.406,754.398l-177.299,916.616c-3.606,18.644,10.676,35.953,29.665,35.953h93.508
			L1009.406,754.398z"/>
		<g>
			<path style="fill:#C7DCFB;" d="M2187.965,1016.785c0,0-79.751-50.875-37.702-111.292c0,0,32.971-36.688,66.498-44.684
				c0,0-22.939,92.378-5.487,95.585c17.453,3.207,18.141-104.779,18.141-104.779s89.192-36.767,123.063-31.516
				c0,0-59.07,88.1-41.365,86.912c17.705-1.188,83.43-90.008,83.43-90.008s89.939-11.372,101.195,42.185
				c11.255,53.557-13.331,78.601-26.704,81.14c-13.374,2.539-97.909-3.416-96.343,7.697c1.567,11.113,57.689,31.972,90.119,23.913
				c0,0-40.141,84.778-86.033,77.734s-58.535-36.43-86.975-40.267c-28.439-3.838-49.756,2.655-35.914,11.166
				c13.841,8.51,62.479,6.115,84.426,27.055c21.946,20.938,39.93,34.097-3.423,40.426c-43.354,6.33-119.946-3.578-133.435-37.422
				C2187.965,1016.785,2187.965,1016.785,2187.965,1016.785z"/>
			<g>
				<path style="fill:#C7DCFB;" d="M2454.139,873.334c0,0-235.012,61.465-266.174,143.451c0,0-1.045,37.419-26.577,78.942
					l-0.946,16.48c0,0,27.388-54.646,41.014-61.579C2201.455,1050.629,2153.979,975.152,2454.139,873.334z"/>
				<path style="fill:#C7DCFB;" d="M2161.388,1095.728c0,0-38.684,51.989-22.175,118.926l9.295-1.934
					c0,0-4.727-72.953,15.981-108.32C2185.196,1069.033,2161.388,1095.728,2161.388,1095.728z"/>
			</g>
		</g>
		<g>
			<path style="fill:#DFEBFD;" d="M1973.237,795.961c0,0-122.534-26.907-97.782-121.337c0,0,24.289-60.739,62.379-86.011
				c0,0,13.641,125.493,36.835,121.512c23.193-3.981-25.281-138.74-25.281-138.74s94.25-86.521,138.817-95.456
				c0,0-33.297,136.671-11.797,127.104s62.754-150.176,62.754-150.176s106.781-55.245,145.261,6.293
				c38.479,61.538,19.311,103.949,3.82,113.22c-15.49,9.271-123.459,40.475-116.432,53.595
				c7.027,13.12,86.429,13.451,123.123-11.397c0,0-11.247,123.887-71.602,136.082s-89.52-18.615-126.681-10.4
				c-37.16,8.214-60.733,26.036-39.613,30.309c21.121,4.273,80.583-20.929,117.473-4.885c36.889,16.044,65.289,24.21,14.205,51.896
				c-51.083,27.686-150.969,50.339-183.224,14.366C1973.237,795.961,1973.237,795.961,1973.237,795.961z"/>
			<g>
				<path style="fill:#DFEBFD;" d="M2239.097,495.766c0,0-264.516,183.886-265.859,300.195c0,0,15.792,47.065,2.974,110.426
					l6.351,20.95c0,0,9.135-80.545,22.932-95.403C2005.493,831.935,1911.905,759.652,2239.097,495.766z"/>
				<path style="fill:#DFEBFD;" d="M1976.211,906.387c0,0-24.411,82.399,26.722,158.195l10.689-6.653
					c0,0-39.213-88.67-29.588-142.162C1993.658,862.275,1976.211,906.387,1976.211,906.387z"/>
			</g>
		</g>
		<path style="fill:#78ACEA;" d="M1011.537,750.688l-117.518,899.974c-3.896,29.842,19.336,56.305,49.43,56.305h172.399
			l-97.201-959.529L1011.537,750.688z"/>
		<path style="fill:#699DEE;" d="M1011.537,750.688l-52.607,894.235c-1.981,33.659,24.782,62.043,58.501,62.043h257.117
			L1011.537,750.688z"/>
		<path style="fill:#5288D8;" d="M1009.564,757.988l25.578,886.936c-1.98,33.659,24.783,62.043,58.5,62.043h257.117
			L1009.564,757.988z"/>
		<path style="fill:#D7E9FF;" d="M2240.591,1706.967H1226.793c-25.313,0-47.009-18.089-51.562-42.988L1020.967,820.36
			c-7.004-38.302,22.414-73.587,61.351-73.587H2084.18c25.313,0,47.01,18.088,51.563,42.988l156.41,855.36
			C2298.039,1677.313,2273.315,1706.967,2240.591,1706.967z"/>
		<path style="fill:#F99746;" d="M1041.036,929.921h1121.04l-28.744-159.279c-2.494-13.818-14.521-23.869-28.563-23.869H1018.912
			c-5.934,0-10.417,5.378-9.348,11.215L1041.036,929.921z"/>
		<g>
			<g>
				<g>
					<path style="fill:#78ACEA;" d="M1067.247,698.842c-26.802,0-48.603,21.791-48.603,48.592h9.337
						c0-21.653,17.613-39.266,39.267-39.266s39.278,17.613,39.278,39.266c0,4.349-0.708,8.527-2.021,12.431
						c-3.858,11.541-12.933,20.707-24.416,24.679c-3.356,1.164-6.906,1.895-10.604,2.1v9.337c4.315-0.194,8.469-0.947,12.419-2.203
						c15.764-4.988,28.08-17.83,32.338-33.913c1.05-3.972,1.609-8.139,1.609-12.431
						C1115.85,720.633,1094.048,698.842,1067.247,698.842z"/>
				</g>
				<path style="fill:#78ACEA;" d="M1082.279,790.97c0,0.97-0.137,1.918-0.376,2.808c-1.233,4.452-5.308,7.716-10.147,7.716
					c-5.81,0-10.524-4.714-10.524-10.524c0-5.81,4.714-10.524,10.524-10.524c3.39,0,6.404,1.61,8.333,4.098
					C1081.469,786.324,1082.279,788.55,1082.279,790.97z"/>
			</g>
			<g>
				<g>
					<path style="fill:#78ACEA;" d="M1241.503,698.842c-26.802,0-48.604,21.791-48.604,48.592h9.326
						c0-21.653,17.624-39.266,39.278-39.266c21.653,0,39.266,17.613,39.266,39.266c0,4.349-0.708,8.527-2.021,12.431
						c-3.858,11.541-12.933,20.707-24.404,24.679c-3.356,1.164-6.917,1.895-10.616,2.1v9.337c4.314-0.194,8.47-0.947,12.419-2.203
						c15.775-4.988,28.091-17.83,32.349-33.913c1.05-3.972,1.609-8.139,1.609-12.431
						C1290.106,720.633,1268.304,698.842,1241.503,698.842z"/>
				</g>
				<path style="fill:#78ACEA;" d="M1256.524,790.97c0,0.97-0.137,1.918-0.376,2.808c-1.233,4.452-5.297,7.716-10.148,7.716
					c-5.81,0-10.524-4.714-10.524-10.524c0-5.81,4.714-10.524,10.524-10.524c3.401,0,6.415,1.61,8.344,4.098
					C1255.714,786.324,1256.524,788.55,1256.524,790.97z"/>
			</g>
			<g>
				<g>
					<path style="fill:#78ACEA;" d="M1415.759,698.842c-26.802,0-48.604,21.791-48.604,48.592h9.326
						c0-21.653,17.613-39.266,39.278-39.266c21.654,0,39.267,17.613,39.267,39.266c0,4.349-0.708,8.527-2.021,12.431
						c-3.858,11.541-12.933,20.707-24.405,24.679c-3.356,1.164-6.917,1.895-10.616,2.1v9.337c4.304-0.194,8.47-0.947,12.419-2.203
						c15.775-4.999,28.08-17.83,32.338-33.913c1.05-3.972,1.609-8.139,1.609-12.431
						C1464.351,720.633,1442.549,698.842,1415.759,698.842z"/>
				</g>
				<path style="fill:#78ACEA;" d="M1430.78,790.97c0,0.97-0.137,1.918-0.376,2.808c-1.233,4.452-5.308,7.716-10.148,7.716
					c-5.81,0-10.524-4.714-10.524-10.524c0-5.81,4.714-10.524,10.524-10.524c3.391,0,6.404,1.61,8.344,4.098
					C1429.97,786.324,1430.78,788.55,1430.78,790.97z"/>
			</g>
			<g>
				<g>
					<path style="fill:#78ACEA;" d="M1590.004,698.842c-26.802,0-48.593,21.791-48.593,48.592h9.326
						c0-21.653,17.612-39.266,39.267-39.266c21.653,0,39.277,17.613,39.277,39.266c0,4.349-0.708,8.527-2.021,12.431
						c-3.857,11.541-12.933,20.707-24.415,24.679c-3.356,1.164-6.906,1.895-10.604,2.1v9.337c4.303-0.194,8.47-0.947,12.419-2.203
						c15.775-4.999,28.08-17.83,32.338-33.913c1.05-3.972,1.609-8.139,1.609-12.431
						C1638.607,720.633,1616.806,698.842,1590.004,698.842z"/>
				</g>
				<path style="fill:#78ACEA;" d="M1605.037,790.97c0,0.97-0.138,1.918-0.377,2.808c-1.232,4.452-5.308,7.716-10.147,7.716
					c-5.811,0-10.524-4.714-10.524-10.524c0-5.81,4.714-10.524,10.524-10.524c3.39,0,6.403,1.61,8.333,4.098
					C1604.227,786.324,1605.037,788.55,1605.037,790.97z"/>
			</g>
			<g>
				<g>
					<path style="fill:#78ACEA;" d="M1764.26,698.842c-26.802,0-48.604,21.791-48.604,48.592h9.326
						c0-21.653,17.624-39.266,39.277-39.266s39.267,17.613,39.267,39.266c0,4.349-0.708,8.527-2.021,12.431
						c-3.858,11.541-12.933,20.707-24.416,24.679c-3.345,1.164-6.906,1.895-10.604,2.1v9.337c4.315-0.194,8.47-0.947,12.419-2.203
						c15.775-4.988,28.092-17.83,32.35-33.913c1.051-3.972,1.609-8.139,1.609-12.431
						C1812.863,720.633,1791.062,698.842,1764.26,698.842z"/>
				</g>
				<path style="fill:#78ACEA;" d="M1779.281,790.97c0,0.97-0.137,1.918-0.377,2.808c-1.232,4.452-5.296,7.716-10.147,7.716
					c-5.81,0-10.524-4.714-10.524-10.524c0-5.81,4.715-10.524,10.524-10.524c3.402,0,6.415,1.61,8.333,4.098
					C1778.471,786.324,1779.281,788.55,1779.281,790.97z"/>
			</g>
			<g>
				<g>
					<path style="fill:#78ACEA;" d="M1938.516,698.842c-26.801,0-48.604,21.791-48.604,48.592h9.326
						c0-21.653,17.613-39.266,39.277-39.266c21.654,0,39.267,17.613,39.267,39.266c0,4.349-0.708,8.527-2.021,12.431
						c-3.857,11.541-12.933,20.707-24.416,24.679c-3.344,1.164-6.905,1.895-10.604,2.1v9.337c4.314-0.194,8.47-0.947,12.419-2.203
						c15.764-4.988,28.08-17.83,32.338-33.913c1.05-3.972,1.608-8.139,1.608-12.431
						C1987.107,720.633,1965.306,698.842,1938.516,698.842z"/>
				</g>
				<path style="fill:#78ACEA;" d="M1953.537,790.97c0,0.97-0.137,1.918-0.376,2.808c-1.233,4.452-5.308,7.716-10.147,7.716
					c-5.811,0-10.524-4.714-10.524-10.524c0-5.81,4.714-10.524,10.524-10.524c3.39,0,6.403,1.61,8.332,4.098
					C1952.728,786.324,1953.537,788.55,1953.537,790.97z"/>
			</g>
			<g>
				<g>
					<path style="fill:#78ACEA;" d="M2112.761,698.842c-26.802,0-48.593,21.791-48.593,48.592h9.326
						c0-21.653,17.613-39.266,39.267-39.266s39.277,17.613,39.277,39.266c0,4.349-0.707,8.527-2.021,12.431
						c-3.857,11.541-12.932,20.707-24.415,24.679c-3.356,1.164-6.906,1.895-10.604,2.1v9.337c4.314-0.194,8.47-0.947,12.419-2.203
						c15.764-4.988,28.08-17.83,32.338-33.913c1.05-3.972,1.609-8.139,1.609-12.431
						C2161.364,720.633,2139.563,698.842,2112.761,698.842z"/>
				</g>
				<path style="fill:#78ACEA;" d="M2127.794,790.97c0,0.97-0.138,1.918-0.377,2.808c-1.232,4.452-5.308,7.716-10.147,7.716
					c-5.811,0-10.524-4.714-10.524-10.524c0-5.81,4.714-10.524,10.524-10.524c3.391,0,6.403,1.61,8.333,4.098
					C2126.983,786.324,2127.794,788.55,2127.794,790.97z"/>
			</g>
		</g>
		<g>
			<path style="fill:#AFCDFB;" d="M1689.322,1229.145h-56.67c-6.551,0-12.945-5.359-14.209-11.911l-10.932-56.67
				c-1.264-6.551,3.063-11.911,9.614-11.911h56.67c6.552,0,12.945,5.36,14.209,11.911l10.932,56.67
				C1700.2,1223.785,1695.874,1229.145,1689.322,1229.145z"/>
			<path style="fill:#AFCDFB;" d="M1832.324,1229.145h-56.67c-6.551,0-12.945-5.359-14.209-11.911l-10.932-56.67
				c-1.264-6.551,3.063-11.911,9.613-11.911h56.671c6.551,0,12.945,5.36,14.209,11.911l10.931,56.67
				C1843.202,1223.785,1838.876,1229.145,1832.324,1229.145z"/>
			<path style="fill:#78ACEA;" d="M1975.326,1229.145h-56.67c-6.552,0-12.945-5.359-14.209-11.911l-10.932-56.67
				c-1.264-6.551,3.063-11.911,9.613-11.911h56.67c6.552,0,12.945,5.36,14.209,11.911l10.932,56.67
				C1986.203,1223.785,1981.877,1229.145,1975.326,1229.145z"/>
			<path style="fill:#AFCDFB;" d="M1260.317,1229.145h-56.67c-6.551,0-12.945-5.359-14.209-11.911l-10.932-56.67
				c-1.264-6.551,3.063-11.911,9.614-11.911h56.67c6.551,0,12.945,5.36,14.208,11.911l10.932,56.67
				C1271.195,1223.785,1266.869,1229.145,1260.317,1229.145z"/>
			<path style="fill:#F99746;" d="M1198.207,1059.008h-24.353c-2.815,0-5.563-2.303-6.106-5.118l-4.698-24.354
				c-0.543-2.815,1.316-5.119,4.131-5.119h24.353c2.815,0,5.563,2.304,6.106,5.119l4.698,24.354
				C1202.882,1056.705,1201.022,1059.008,1198.207,1059.008z"/>
			<path style="fill:#AFCDFB;" d="M1403.319,1229.145h-56.67c-6.551,0-12.945-5.359-14.208-11.911l-10.932-56.67
				c-1.264-6.551,3.063-11.911,9.613-11.911h56.67c6.551,0,12.945,5.36,14.209,11.911l10.932,56.67
				C1414.197,1223.785,1409.871,1229.145,1403.319,1229.145z"/>
			<path style="fill:#AFCDFB;" d="M1546.321,1229.145h-56.67c-6.551,0-12.945-5.359-14.209-11.911l-10.932-56.67
				c-1.264-6.551,3.063-11.911,9.614-11.911h56.67c6.552,0,12.945,5.36,14.209,11.911l10.932,56.67
				C1557.198,1223.785,1552.872,1229.145,1546.321,1229.145z"/>
			<path style="fill:#78ACEA;" d="M2118.328,1229.145h-56.671c-6.551,0-12.944-5.359-14.208-11.911l-10.932-56.67
				c-1.264-6.551,3.063-11.911,9.613-11.911h56.67c6.552,0,12.945,5.36,14.209,11.911l10.932,56.67
				C2129.205,1223.785,2124.879,1229.145,2118.328,1229.145z"/>
			<path style="fill:#AFCDFB;" d="M1665.58,1106.062h-56.67c-6.551,0-12.945-5.36-14.209-11.911l-10.932-56.67
				c-1.264-6.552,3.063-11.912,9.613-11.912h56.671c6.551,0,12.945,5.36,14.209,11.912l10.932,56.67
				C1676.458,1100.701,1672.132,1106.062,1665.58,1106.062z"/>
			<path style="fill:#AFCDFB;" d="M1808.582,1106.062h-56.67c-6.552,0-12.945-5.36-14.209-11.911l-10.932-56.67
				c-1.264-6.552,3.063-11.912,9.613-11.912h56.67c6.552,0,12.945,5.36,14.209,11.912l10.932,56.67
				C1819.459,1100.701,1815.133,1106.062,1808.582,1106.062z"/>
			<path style="fill:#78ACEA;" d="M1951.584,1106.062h-56.67c-6.552,0-12.945-5.36-14.209-11.911l-10.932-56.67
				c-1.265-6.552,3.063-11.912,9.613-11.912h56.67c6.551,0,12.945,5.36,14.209,11.912l10.932,56.67
				C1962.461,1100.701,1958.135,1106.062,1951.584,1106.062z"/>
			<path style="fill:#78ACEA;" d="M2094.586,1106.062h-56.671c-6.551,0-12.945-5.36-14.209-11.911l-10.932-56.67
				c-1.264-6.552,3.063-11.912,9.614-11.912h56.67c6.551,0,12.945,5.36,14.209,11.912l10.932,56.67
				C2105.463,1100.701,2101.137,1106.062,2094.586,1106.062z"/>
			<path style="fill:#AFCDFB;" d="M1714.487,1359.6h-56.671c-6.551,0-12.944-5.36-14.208-11.911l-10.932-56.671
				c-1.264-6.551,3.062-11.911,9.613-11.911h56.67c6.552,0,12.945,5.36,14.209,11.911l10.932,56.671
				C1725.364,1354.239,1721.038,1359.6,1714.487,1359.6z"/>
			<path style="fill:#AFCDFB;" d="M1857.488,1359.6h-56.67c-6.551,0-12.945-5.36-14.209-11.911l-10.932-56.671
				c-1.264-6.551,3.063-11.911,9.614-11.911h56.67c6.552,0,12.945,5.36,14.209,11.911l10.932,56.671
				C1868.366,1354.239,1864.04,1359.6,1857.488,1359.6z"/>
			<path style="fill:#78ACEA;" d="M2000.49,1359.6h-56.67c-6.551,0-12.945-5.36-14.209-11.911l-10.932-56.671
				c-1.264-6.551,3.063-11.911,9.614-11.911h56.67c6.551,0,12.945,5.36,14.209,11.911l10.932,56.671
				C2011.368,1354.239,2007.042,1359.6,2000.49,1359.6z"/>
			<path style="fill:#AFCDFB;" d="M1285.482,1359.6h-56.67c-6.551,0-12.945-5.36-14.209-11.911l-10.932-56.671
				c-1.264-6.551,3.063-11.911,9.614-11.911h56.67c6.551,0,12.945,5.36,14.209,11.911l10.932,56.671
				C1296.359,1354.239,1292.033,1359.6,1285.482,1359.6z"/>
			<path style="fill:#AFCDFB;" d="M1428.483,1359.6h-56.67c-6.551,0-12.945-5.36-14.209-11.911l-10.932-56.671
				c-1.264-6.551,3.063-11.911,9.614-11.911h56.67c6.551,0,12.945,5.36,14.209,11.911l10.931,56.671
				C1439.361,1354.239,1435.035,1359.6,1428.483,1359.6z"/>
			<path style="fill:#AFCDFB;" d="M1571.485,1359.6h-56.67c-6.552,0-12.945-5.36-14.209-11.911l-10.932-56.671
				c-1.264-6.551,3.063-11.911,9.613-11.911h56.671c6.551,0,12.945,5.36,14.209,11.911l10.932,56.671
				C1582.363,1354.239,1578.037,1359.6,1571.485,1359.6z"/>
			<path style="fill:#78ACEA;" d="M2143.492,1359.6h-56.67c-6.552,0-12.945-5.36-14.209-11.911l-10.932-56.671
				c-1.264-6.551,3.063-11.911,9.613-11.911h56.671c6.551,0,12.944,5.36,14.208,11.911l10.932,56.671
				C2154.369,1354.239,2150.043,1359.6,2143.492,1359.6z"/>
			<path style="fill:#AFCDFB;" d="M1739.651,1490.054h-56.67c-6.552,0-12.945-5.359-14.209-11.911l-10.932-56.67
				c-1.264-6.551,3.063-11.911,9.613-11.911h56.671c6.551,0,12.945,5.36,14.209,11.911l10.932,56.67
				C1750.529,1484.694,1746.203,1490.054,1739.651,1490.054z"/>
			<path style="fill:#AFCDFB;" d="M1882.653,1490.054h-56.67c-6.552,0-12.946-5.359-14.209-11.911l-10.932-56.67
				c-1.264-6.551,3.062-11.911,9.613-11.911h56.67c6.552,0,12.945,5.36,14.209,11.911l10.932,56.67
				C1893.53,1484.694,1889.204,1490.054,1882.653,1490.054z"/>
			<path style="fill:#78ACEA;" d="M2025.654,1490.054h-56.67c-6.551,0-12.945-5.359-14.209-11.911l-10.932-56.67
				c-1.264-6.551,3.063-11.911,9.614-11.911h56.67c6.552,0,12.945,5.36,14.209,11.911l10.932,56.67
				C2036.532,1484.694,2032.206,1490.054,2025.654,1490.054z"/>
			<path style="fill:#AFCDFB;" d="M1310.646,1490.054h-56.67c-6.551,0-12.945-5.359-14.209-11.911l-10.932-56.67
				c-1.264-6.551,3.063-11.911,9.614-11.911h56.67c6.551,0,12.945,5.36,14.208,11.911l10.932,56.67
				C1321.523,1484.694,1317.197,1490.054,1310.646,1490.054z"/>
			<path style="fill:#F99746;" d="M1453.648,1490.054h-56.67c-6.551,0-12.945-5.359-14.208-11.911l-10.932-56.67
				c-1.264-6.551,3.062-11.911,9.613-11.911h56.67c6.551,0,12.945,5.36,14.209,11.911l10.932,56.67
				C1464.525,1484.694,1460.199,1490.054,1453.648,1490.054z"/>
			<path style="fill:#AFCDFB;" d="M1596.649,1490.054h-56.67c-6.552,0-12.945-5.359-14.209-11.911l-10.932-56.67
				c-1.264-6.551,3.063-11.911,9.614-11.911h56.67c6.551,0,12.945,5.36,14.209,11.911l10.932,56.67
				C1607.527,1484.694,1603.201,1490.054,1596.649,1490.054z"/>
			<path style="fill:#78ACEA;" d="M2168.656,1490.054h-56.67c-6.551,0-12.945-5.359-14.209-11.911l-10.932-56.67
				c-1.264-6.551,3.063-11.911,9.613-11.911h56.671c6.552,0,12.945,5.36,14.209,11.911l10.932,56.67
				C2179.534,1484.694,2175.208,1490.054,2168.656,1490.054z"/>
			<path style="fill:#AFCDFB;" d="M1763.394,1613.138h-56.67c-6.552,0-12.945-5.36-14.209-11.911l-10.932-56.671
				c-1.264-6.551,3.063-11.911,9.614-11.911h56.67c6.551,0,12.945,5.36,14.209,11.911l10.932,56.671
				C1774.271,1607.777,1769.945,1613.138,1763.394,1613.138z"/>
			<path style="fill:#AFCDFB;" d="M1906.396,1613.138h-56.67c-6.552,0-12.945-5.36-14.209-11.911l-10.932-56.671
				c-1.264-6.551,3.063-11.911,9.613-11.911h56.671c6.551,0,12.945,5.36,14.209,11.911l10.931,56.671
				C1917.273,1607.777,1912.947,1613.138,1906.396,1613.138z"/>
			<path style="fill:#78ACEA;" d="M2049.397,1613.138h-56.67c-6.552,0-12.945-5.36-14.209-11.911l-10.932-56.671
				c-1.264-6.551,3.063-11.911,9.613-11.911h56.67c6.552,0,12.945,5.36,14.21,11.911l10.931,56.671
				C2060.274,1607.777,2055.948,1613.138,2049.397,1613.138z"/>
			<path style="fill:#AFCDFB;" d="M1334.389,1613.138h-56.67c-6.552,0-12.945-5.36-14.209-11.911l-10.932-56.671
				c-1.264-6.551,3.063-11.911,9.613-11.911h56.67c6.551,0,12.945,5.36,14.209,11.911l10.932,56.671
				C1345.266,1607.777,1340.94,1613.138,1334.389,1613.138z"/>
			<path style="fill:#AFCDFB;" d="M1477.391,1613.138h-56.67c-6.551,0-12.945-5.36-14.209-11.911l-10.932-56.671
				c-1.264-6.551,3.063-11.911,9.614-11.911h56.67c6.552,0,12.945,5.36,14.209,11.911l10.932,56.671
				C1488.268,1607.777,1483.941,1613.138,1477.391,1613.138z"/>
			<path style="fill:#AFCDFB;" d="M1620.393,1613.138h-56.671c-6.551,0-12.945-5.36-14.209-11.911l-10.932-56.671
				c-1.264-6.551,3.063-11.911,9.614-11.911h56.67c6.551,0,12.945,5.36,14.209,11.911l10.932,56.671
				C1631.27,1607.777,1626.943,1613.138,1620.393,1613.138z"/>
			<path style="fill:#AFCDFB;" d="M1369.969,1036.645h-150.134c-2.212,0-4.023-1.811-4.023-4.023l0,0
				c0-2.212,1.811-4.022,4.023-4.022h150.134c2.212,0,4.023,1.811,4.023,4.022l0,0
				C1373.992,1034.834,1372.182,1036.645,1369.969,1036.645z"/>
			<path style="fill:#AFCDFB;" d="M1374.535,1054.827h-150.134c-2.213,0-4.023-1.811-4.023-4.023l0,0
				c0-2.212,1.81-4.022,4.023-4.022h150.134c2.212,0,4.023,1.811,4.023,4.022l0,0
				C1378.558,1053.017,1376.748,1054.827,1374.535,1054.827z"/>
		</g>
		<g>
			<path style="fill:#FFFFFF;" d="M1208.95,901.248h-51.52c-4.22,0-7.673-3.453-7.673-7.673l0,0c0-4.22,3.453-7.673,7.673-7.673
				h51.52c4.22,0,7.673,3.453,7.673,7.673l0,0C1216.623,897.795,1213.17,901.248,1208.95,901.248z"/>
			<path style="fill:#FFFFFF;" d="M1350.317,901.248h-51.52c-4.221,0-7.673-3.453-7.673-7.673l0,0c0-4.22,3.453-7.673,7.673-7.673
				h51.52c4.22,0,7.673,3.453,7.673,7.673l0,0C1357.991,897.795,1354.538,901.248,1350.317,901.248z"/>
			<path style="fill:#FFFFFF;" d="M1491.685,901.248h-51.52c-4.22,0-7.673-3.453-7.673-7.673l0,0c0-4.22,3.453-7.673,7.673-7.673
				h51.52c4.22,0,7.673,3.453,7.673,7.673l0,0C1499.358,897.795,1495.905,901.248,1491.685,901.248z"/>
			<path style="fill:#FFFFFF;" d="M1633.053,901.248h-51.52c-4.221,0-7.674-3.453-7.674-7.673l0,0c0-4.22,3.453-7.673,7.674-7.673
				h51.52c4.22,0,7.673,3.453,7.673,7.673l0,0C1640.726,897.795,1637.272,901.248,1633.053,901.248z"/>
			<path style="fill:#FFFFFF;" d="M1774.42,901.248h-51.52c-4.221,0-7.673-3.453-7.673-7.673l0,0c0-4.22,3.452-7.673,7.673-7.673
				h51.52c4.221,0,7.673,3.453,7.673,7.673l0,0C1782.093,897.795,1778.641,901.248,1774.42,901.248z"/>
			<path style="fill:#FFFFFF;" d="M1915.787,901.248h-51.52c-4.22,0-7.673-3.453-7.673-7.673l0,0c0-4.22,3.453-7.673,7.673-7.673
				h51.52c4.221,0,7.674,3.453,7.674,7.673l0,0C1923.461,897.795,1920.008,901.248,1915.787,901.248z"/>
			<path style="fill:#FFFFFF;" d="M2057.155,901.248h-51.52c-4.221,0-7.673-3.453-7.673-7.673l0,0c0-4.22,3.452-7.673,7.673-7.673
				h51.52c4.22,0,7.673,3.453,7.673,7.673l0,0C2064.828,897.795,2061.375,901.248,2057.155,901.248z"/>
		</g>
		<g>
			<path style="fill:#C65447;" d="M1731.313,1107.178c-11.377,0-19.661-3.612-24.176-10.619
				c-8.658-13.438-1.975-32.275,19.864-55.991c15.95-17.317,34.575-31.041,34.762-31.178c0.729-0.537,1.761-0.379,2.298,0.354
				c0.537,0.731,0.378,1.761-0.354,2.298c-0.727,0.534-72.52,53.69-53.805,82.736c5.929,9.201,18.618,9.811,28.233,8.698
				c17.786-2.057,40.979-11.637,62.038-25.624c21.799-14.478,37.153-30.795,42.129-44.767c3.264-9.167,2.255-15.659-3.004-19.297
				c-6.791-4.701-20.979-4.704-37.952-0.013c-16.256,4.494-32.616,12.585-42.699,21.117c-0.691,0.586-1.73,0.498-2.317-0.194
				s-0.5-1.73,0.193-2.317c10.422-8.818,27.262-17.162,43.947-21.774c18.168-5.022,33.002-4.849,40.7,0.478
				c4.56,3.154,8.994,9.725,4.229,23.104c-5.209,14.628-21.03,31.542-43.406,46.403c-21.473,14.262-45.203,24.037-63.48,26.151
				C1735.993,1107.033,1733.591,1107.178,1731.313,1107.178z"/>
		</g>
		<g>
			<path style="fill:#FFB27D;" d="M2028.788,1013.759l-5.849-11.033c0,0,2.903-19.662-21.733-32.099c0,0-9.004-3.666-14.087,3.677
				c-4.682,6.764,8.923,5.542,8.193,17.114c-0.729,11.572,4.761,18.361,12.407,22.13l6.318,7.32L2028.788,1013.759z"/>
			<path style="fill:#233862;" d="M2261.612,987.381c0,0-21.156,103.841-137.582,137.768
				c-36.344,10.591-118.909-109.06-118.909-109.06s2.902-11.03,21.088-8.497c0,0,80.393,53.222,90.514,59.004
				c8.98,5.131,68.041-65.948,94.965-77.413C2238.611,977.717,2261.612,987.381,2261.612,987.381z"/>
			<g>
				
					<rect x="1974.066" y="921.943" transform="matrix(-0.1821 -0.9833 0.9833 -0.1821 1378.8328 3119.6702)" style="fill:#C65447;" width="25.621" height="128.881"/>
				<polygon style="fill:#FFB27D;" points="1894.051,1003.572 1925.846,1010.713 1921.181,985.521 				"/>
				<path style="fill:#FFB27D;" d="M2064.187,967.683l1.476,7.964c0.906,4.899-2.329,9.606-7.229,10.514l-5.861,1.086l-4.666-25.192
					l6.375-1.181C2058.897,960.018,2063.332,963.067,2064.187,967.683z"/>
			</g>
			<g>
				<path style="fill:#233862;" d="M2400.609,1640.153c0,0,14.443,13.182,11.625,22.547s-15.852,15.609-17.613,27.056
					c-1.762,11.447-8.807,17.69-15.148,17.69c-6.341,0-30.23,0-30.23,0s-4.668-8.055,6.605-10.483
					c11.272-2.428,15.523-15.879,14.818-28.366s1.057-29.137,1.057-29.137l23.955-5.55L2400.609,1640.153z"/>
				<path style="fill:#233862;" d="M2223.415,1674.245c0,0,2.593,29.997-3.749,33.119l-81.149-0.167c0,0,0-9.365,13.034-11.446
					s35.932-9.712,39.808-26.709C2195.233,1652.046,2223.415,1674.245,2223.415,1674.245z"/>
				<path style="fill:#F99746;" d="M2154.902,1250.506c0,0,4.28,52.582,9.311,115.789c6.838,85.86,15.06,191.326,15.874,211.306
					c1.405,34.694,7.049,90.19,7.049,90.19s13.38,13.184,40.159,7.627c0,0,23.863-79.222,30.68-163.043
					c0.105-1.373,0.212-2.757,0.317-4.141c6.341-85.33,16.201-265.013,16.201-265.013L2154.902,1250.506z"/>
				<path style="fill:#ED7D2B;" d="M2154.902,1250.506c0,0,4.28,52.582,9.311,115.789l93.762,146.08
					c0.105-1.373,0.212-2.757,0.317-4.141c6.341-85.33,16.201-265.013,16.201-265.013L2154.902,1250.506z"/>
				<path style="fill:#F99746;" d="M2174.449,1256.75c0,0,77.148,190.432,127.875,279.925
					c50.729,89.492,66.58,114.467,66.58,114.467s29.063-11.447,31.705-19.251c0,0-19.398-172.77-53.369-214.887
					c-19.196-23.798-41.745-95.215-42.802-120.19c-1.057-24.974-6.869-74.403-6.869-74.403L2174.449,1256.75z"/>
			</g>
			<path style="fill:#FFB27D;" d="M2275.954,963.281c0,0-52.2,25.186-82.293,15.842c0,0,7.407-9.345,20.37-16.298
				c-1.041-6.04-1.852-11.283-2.314-15.727c-1.273-10.257-1.273-16.069-1.273-16.069l20.14-15.84l19.098-15.158
				C2248.176,942.653,2275.954,963.281,2275.954,963.281z"/>
			<path style="fill:#2B478B;" d="M2151.607,1254.849c0.922,0.801,1.967,1.248,3.133,1.248c11.339-0.23,44.325,6.035,72.211,3.188
				c23.613-2.279,44.447-9.114,66.785-18.907c3.012-1.37,9.848-5.019,9.725-8.206c-0.121-3.648-0.461-8.775-0.922-15.395
				c-0.936-13.021-2.252-31.507-2.672-53.426c-0.312-16.249-0.136-34.383,1.045-53.588c0.067-1.289,0.135-2.591,0.189-3.893
				c0.339-7.04,0.502-14.134,0.502-21.064c0.122-22.339-1.492-43.646-4.734-62.676c-5.683-33.054-16.33-58.919-32.063-70.434
				c-2.089-1.6-15.056,4.666-27.086,10.484c-11,5.357-21.986,5.927-32.403,3.879l-10.416,9.114
				c-12.628,11.502-26.517,27.344-32.647,51.283c-5.086,20.29-8.097,56.979-9.725,95.051c-0.8,17.32-1.383,34.641-1.613,51.161
				v0.569c-0.123,1.709-0.123,3.432-0.123,5.141C2150.224,1220.655,2150.793,1254.279,2151.607,1254.849z"/>
			<path style="fill:#ED985F;" d="M2250.027,916.328c0,0-13.194,24.046-38.311,30.77c-1.273-10.257-1.273-16.069-1.273-16.069
				l20.14-15.84L2250.027,916.328z"/>
			<path style="fill:#FFB27D;" d="M2201.261,930.334c0,0,49.796,8.146,54.472-22.467c4.674-30.613,14.249-50.179-17.347-56.674
				c-31.597-6.495-39.571,4.27-43.656,14.114C2190.646,875.151,2188.428,927.426,2201.261,930.334z"/>
			<path style="fill:#2C3A64;" d="M2273.83,847.527c0.453-0.518,1.495-0.936,3.815-1.063c0,0-1.854-1.16-4.335-1.221
				c-0.484-3.227-2.201-8.938-7.755-10.326c0,0,2.984,1.591,3.374,5.022c-6.432-6.606-20.213-11.414-58.377-8.402
				c-50.295,3.97-33.719,36.172-27.207,40.011c6.511,3.839,22.9-6.685,35.032-5.723c12.132,0.963,14.439,18.493,18.555,20.898
				c4.115,2.406,2.497-1.848,8.065-4.365c5.568-2.517,6.098,6.71,4.489,12.709c-1.608,5.999,6.043,13.913,6.043,13.913
				s0,0,7.731-8.327c7.731-8.327,15.019-43.596,11.504-51.114C2274.455,848.876,2274.147,848.204,2273.83,847.527z"/>
			<path style="fill:#FFB27D;" d="M2022.834,1002.202c0,0,1.714-6.767-2.981-9.81c-4.696-3.043-9.013-11.316-10.993-10.195
				c-4.1,2.321,2.244,9.54,1.083,18.545C2009.536,1003.896,2016.877,1012.157,2022.834,1002.202z"/>
			<path style="fill:#233862;" d="M2299.867,1163.351c-0.312-16.249-0.136-34.383,1.045-53.588c0.067-1.289,0.135-2.591,0.189-3.893
				c-4.733-23.451-11.895-44.258-22.434-44.936C2278.668,1060.935,2247.269,1110.277,2299.867,1163.351z"/>
			<path style="fill:#FFB27D;" d="M2341.4,1248.441c0,0-2.617,25.444-5.488,30.258c-2.872,4.813-15.099,20.192-20.307,23.21
				c-5.209,3.019,3.18-20.265,2.119-24.795c-1.062-4.531-4.287,8.268-6.582,8.568c-2.296,0.301-1.705-11.218-1.787-15.41
				c-0.083-4.192,11.169-14.541,15.136-23.467C2328.457,1237.879,2341.4,1248.441,2341.4,1248.441z"/>
			<path style="fill:#2B478B;" d="M2264.781,951.442c0,0,31.508,14.919,46.614,37.856c23.433,35.579,50.594,165.243,51.096,177.25
				c0.502,12.007-19.825,96.776-19.825,96.776s-20.615-1.358-25.933-11.764c0,0,4.118-87.098,1.509-92.697
				s-85.945-116.834-76.574-140.569C2251.038,994.558,2264.781,951.442,2264.781,951.442z"/>
			<polygon style="fill:#C65447;" points="1910.343,992.732 1912.003,1007.604 1894.051,1003.572 			"/>
		</g>
		<path style="fill:#82B378;" d="M2592.119,1706.967h-90.799c-4.865-4.127,3.367-13.5,11.969-14.131
			c3.736-0.282,8.461,0.5,13.859,1.641c1.249-16.596,8.385-91.201,35.277-88.203c30.236,3.355,0,32.854-8.549,50.319
			c-6.331,12.936-13.011,31.486-16.063,40.24c2.454,0.532,4.996,1.054,7.592,1.531c4.008-12.306,18.92-53.697,37.883-51.286
			c22.266,2.824,13.316,19.42-2.465,29.271c-11.578,7.244-25.795,17.54-32.551,22.515c5.724,0.935,11.697,1.564,17.758,1.423
			C2581.584,1699.918,2589.176,1704.501,2592.119,1706.967z"/>
		<path style="fill:#82B378;" d="M519.42,1702.652c-4.812-7.559-19.293-27.178-38.582-24.581
			c-21.015,2.829,23.21,16.685,36.75,24.639c-3.007,0.042-5.592-0.199-7.491-0.876c-9.052-3.227-24.555,2.962-29.511,5.133h86.176
			c-0.596-2.062-2.148-5.428-6.162-7.881c-1.415-0.865-4.259-0.985-7.931-0.706c5.124-6.04,8.682-25.337-5.582-20.372
			c-10.421,3.628-10.393,15.418-9.37,22.394c-2.217,0.349-4.465,0.698-6.687,1.018c-4.29-21.866-19.466-85.952-50.224-87.661
			c-31.182-1.731,26.442,66.463,45.628,88.273C523.979,1702.327,521.612,1702.55,519.42,1702.652z"/>
		<path style="fill:#2E3552;" d="M2877.937,1713.229H180.457c-1.685,0-3.063-1.379-3.063-3.063v-1.045
			c0-1.685,1.378-3.063,3.063-3.063h2697.479c1.685,0,3.063,1.378,3.063,3.063v1.045
			C2881,1711.85,2879.621,1713.229,2877.937,1713.229z"/>
	</g>
</g>
</svg>
