<?xml version="1.0" encoding="utf-8"?>
<!-- Generator: Adobe Illustrator 27.5.0, SVG Export Plug-In . SVG Version: 6.00 Build 0)  -->
<svg version="1.1" xmlns="http://www.w3.org/2000/svg" xmlns:xlink="http://www.w3.org/1999/xlink" x="0px" y="0px"
	 viewBox="0 0 3710 3710" style="enable-background:new 0 0 3710 3710;" xml:space="preserve">
<g id="Background">
	<g>
		<g>
			<rect style="fill:#FFFFFF;" width="3710" height="3710"/>
		</g>
	</g>
</g>
<g id="Illustration">
	<g>
		<linearGradient id="SVGID_1_" gradientUnits="userSpaceOnUse" x1="3413.7266" y1="3591.4019" x2="1374.1101" y2="1389.9108">
			<stop  offset="0" style="stop-color:#DAE3FE"/>
			<stop  offset="1" style="stop-color:#E9EFFD"/>
		</linearGradient>
		<path style="fill:url(#SVGID_1_);" d="M3129.493,2336.854c-280.258,655.071-1020.049,936.439-1599.687,888.465
			c-158.265-13.099-476.697-39.454-725.331-274.579c-477.485-451.543-403.948-1395.394,53.142-1951.082
			c58.864-71.561,466.31-551.012,1101.24-544.595c464.861,4.699,791.142,267.292,830.816,300.007
			c50.119,41.327,160.663,139.532,260.29,295.329C3284.049,1416.467,3304.626,1927.5,3129.493,2336.854z"/>
		<g>
			<g>
				<g style="opacity:0.3;">
					<path style="fill:#91B3FA;" d="M1319.035,1049.343c5.43,1.282,9.126,6.487,8.4,12.142c-1.584,12.368-3.731,24.852-6.378,37.102
						c-1.288,5.96-7.162,9.749-13.121,8.461c-0.071-0.017-0.141-0.033-0.21-0.05c-5.838-1.378-9.522-7.184-8.25-13.073
						c2.516-11.639,4.553-23.497,6.06-35.246c0.774-6.046,6.305-10.323,12.354-9.547
						C1318.279,1049.182,1318.661,1049.255,1319.035,1049.343z M1296.245,1142.773c0.42,0.099,0.84,0.225,1.256,0.376
						c5.728,2.088,8.68,8.425,6.592,14.153c-4.291,11.765-9.126,23.463-14.373,34.767c-2.567,5.531-9.102,7.926-14.661,5.369
						c-5.53-2.568-7.929-9.134-5.365-14.66c4.987-10.746,9.58-21.858,13.655-33.04
						C1285.286,1144.425,1290.876,1141.505,1296.245,1142.773z M1253.451,1228.861c1.196,0.282,2.365,0.771,3.457,1.476
						c5.117,3.313,6.585,10.146,3.275,15.265c-6.784,10.494-14.112,20.824-21.779,30.702c-3.742,4.814-10.674,5.681-15.49,1.953
						c-4.815-3.738-5.689-10.674-1.952-15.489c7.281-9.38,14.237-19.186,20.682-29.153
						C1244.248,1229.587,1249.036,1227.819,1253.451,1228.861z M1192.468,1303.235c1.977,0.467,3.847,1.485,5.368,3.049
						c4.25,4.37,4.15,11.36-0.221,15.61c-8.969,8.715-18.421,17.148-28.094,25.064c-4.718,3.853-11.669,3.16-15.534-1.554
						c-3.86-4.717-3.164-11.673,1.554-15.534c9.187-7.516,18.167-15.525,26.686-23.81
						C1185.035,1303.332,1188.92,1302.397,1192.468,1303.235z M1116.433,1362.141c2.772,0.655,5.29,2.375,6.888,4.998
						c3.175,5.207,1.527,11.999-3.679,15.17c-10.651,6.492-21.732,12.622-32.932,18.21c-5.453,2.727-12.084,0.514-14.807-4.945
						c-2.722-5.454-0.508-12.083,4.948-14.809c10.646-5.311,21.178-11.136,31.3-17.306
						C1110.734,1361.885,1113.705,1361.496,1116.433,1362.141z M1029.267,1402.756c3.59,0.848,6.675,3.472,7.937,7.226
						c1.943,5.78-1.165,12.038-6.943,13.983c-11.842,3.983-24.005,7.509-36.147,10.473c-5.926,1.446-11.896-2.184-13.343-8.108
						c-1.447-5.919,2.183-11.894,8.105-13.341c11.538-2.818,23.092-6.165,34.345-9.95
						C1025.248,1402.357,1027.33,1402.299,1029.267,1402.756z M629.545,1335.39c1.488,0.351,2.923,1.018,4.21,2.013
						c9.381,7.257,19.206,14.202,29.201,20.638c5.125,3.301,6.605,10.132,3.304,15.255c-3.299,5.127-10.13,6.607-15.257,3.305
						c-10.526-6.778-20.875-14.091-30.755-21.731c-4.823-3.731-5.708-10.665-1.977-15.486
						C621.004,1335.846,625.461,1334.426,629.545,1335.39z M935.328,1423.032c4.457,1.052,7.962,4.831,8.446,9.641
						c0.61,6.068-3.813,11.479-9.879,12.089c-12.433,1.251-25.072,1.976-37.566,2.154c-6.095,0.059-11.111-4.781-11.197-10.88
						c-0.087-6.095,4.785-11.108,10.882-11.197c11.865-0.167,23.866-0.856,35.672-2.043
						C932.941,1422.672,934.168,1422.758,935.328,1423.032z M711.758,1385.273c0.709,0.167,1.413,0.404,2.1,0.722
						c10.774,4.976,21.907,9.549,33.086,13.602c5.732,2.08,8.694,8.411,6.617,14.141c-2.079,5.73-8.413,8.722-14.141,6.617
						c-11.762-4.265-23.477-9.078-34.815-14.311c-5.535-2.556-7.952-9.117-5.396-14.65
						C701.446,1386.547,706.755,1384.092,711.758,1385.273z M839.216,1421.816c5.422,1.28,9.116,6.472,8.403,12.121
						c-0.763,6.049-6.285,10.332-12.335,9.573c-12.384-1.564-24.868-3.682-37.102-6.305c-0.076-0.013-0.154-0.032-0.23-0.05
						c-5.829-1.376-9.512-7.168-8.254-13.052c1.277-5.964,7.143-9.762,13.106-8.483c11.622,2.487,23.479,4.498,35.246,5.982
						C838.445,1421.656,838.836,1421.726,839.216,1421.816z"/>
					<path style="fill:#91B3FA;" d="M572.773,1282.612c2.115,0.499,4.107,1.625,5.669,3.367c3.8,4.238,7.753,8.463,11.746,12.569
						c4.252,4.367,4.159,11.358-0.209,15.608c-4.367,4.254-11.362,4.167-15.61-0.212c-4.203-4.315-8.359-8.761-12.36-13.219
						c-4.071-4.536-3.694-11.519,0.842-15.587C565.65,1282.627,569.374,1281.81,572.773,1282.612z"/>
				</g>
				<g style="opacity:0.3;">
					<path style="fill:#91B3FA;" d="M463.676,964.234c5.185,1.224,8.861,6.062,8.462,11.546c-0.416,5.675-0.72,11.456-0.901,17.177
						c-0.194,6.095-5.291,10.878-11.384,10.684c-6.119-0.195-10.877-5.293-10.684-11.384c0.193-6.024,0.511-12.112,0.948-18.088
						c0.445-6.08,5.735-10.648,11.815-10.205C462.529,964.008,463.112,964.101,463.676,964.234z"/>
					<path style="fill:#91B3FA;" d="M990.858,576.723c4.943,1.167,9.886,2.423,14.826,3.766c5.882,1.602,9.355,7.667,7.756,13.55
						c-1.599,5.883-7.699,9.37-13.549,7.758c-11.401-3.1-22.902-5.73-34.315-7.84c-5.998-1.119-9.956-6.865-8.849-12.86
						c1.109-5.999,6.868-9.96,12.863-8.851C976.649,573.55,983.805,575.058,990.858,576.723z M1060.745,599.589
						c0.6,0.142,1.199,0.336,1.787,0.586c11.339,4.808,22.601,10.152,33.469,15.881c5.392,2.841,7.46,9.519,4.619,14.909
						c-2.844,5.394-9.536,7.474-14.914,4.618c-10.323-5.441-21.022-10.514-31.796-15.087c-5.612-2.379-8.232-8.859-5.852-14.469
						C1050.191,601.001,1055.607,598.376,1060.745,599.589z M911.871,565.673c5.065,1.196,8.726,5.857,8.479,11.244
						c-0.28,6.093-5.443,10.802-11.534,10.525c-11.65-0.535-23.481-0.577-35.17-0.12c-6.093,0.227-11.223-4.511-11.46-10.601
						c-0.236-6.094,4.511-11.225,10.603-11.462c12.308-0.479,24.77-0.434,37.039,0.127
						C910.529,565.418,911.212,565.518,911.871,565.673z M1143.29,645.922c1.364,0.322,2.686,0.914,3.895,1.779
						c9.996,7.176,19.806,14.866,29.156,22.856c4.634,3.96,5.18,10.926,1.22,15.56c-3.962,4.638-10.926,5.187-15.563,1.221
						c-8.878-7.585-18.193-14.888-27.687-21.703c-4.954-3.553-6.085-10.453-2.53-15.404
						C1134.467,646.489,1139.066,644.925,1143.29,645.922z M817.493,571.836c4.155,0.981,7.539,4.341,8.336,8.813
						c1.069,6.003-2.932,11.735-8.935,12.804c-11.476,2.04-23.027,4.603-34.333,7.614c-5.891,1.569-11.94-1.933-13.508-7.828
						c-1.567-5.89,1.936-11.935,7.827-13.504c11.903-3.171,24.064-5.869,36.148-8.019
						C814.556,571.444,816.071,571.5,817.493,571.836z M726.751,598.56c3.321,0.784,6.234,3.093,7.654,6.481
						c2.354,5.624-0.296,12.092-5.92,14.446c-10.785,4.516-21.505,9.539-31.862,14.928c-5.405,2.822-12.069,0.722-14.889-4.694
						c-2.814-5.409-0.712-12.073,4.696-14.89c10.9-5.672,22.181-10.957,33.53-15.707C722.193,598.188,724.56,598.042,726.751,598.56
						z M643.994,644.43c2.526,0.596,4.852,2.08,6.47,4.367c3.522,4.974,2.343,11.865-2.634,15.386
						c-9.553,6.761-18.924,13.994-27.853,21.509c-4.663,3.923-11.623,3.33-15.553-1.341c-3.923-4.666-3.325-11.627,1.342-15.554
						c9.398-7.905,19.26-15.523,29.311-22.636C637.767,644.258,641.018,643.727,643.994,644.43z M573.214,707.252
						c1.75,0.413,3.422,1.26,4.852,2.55c4.525,4.085,4.88,11.063,0.795,15.588c-7.84,8.68-15.394,17.792-22.458,27.086
						c-3.689,4.853-10.622,5.795-15.467,2.112c-4.855-3.689-5.799-10.616-2.11-15.469c7.439-9.79,15.396-19.386,23.648-28.524
						C565.272,707.5,569.423,706.357,573.214,707.252z M517.932,784.11c0.984,0.232,1.952,0.607,2.878,1.127
						c5.314,2.987,7.2,9.719,4.211,15.03c-5.717,10.17-11.076,20.717-15.927,31.356c-2.53,5.548-9.093,7.982-14.624,5.462
						c-5.548-2.528-7.993-9.078-5.463-14.626c5.108-11.199,10.749-22.305,16.769-33.009
						C508.244,785.062,513.266,783.008,517.932,784.11z M480.91,871.176c0.22,0.052,0.441,0.113,0.66,0.178
						c5.836,1.759,9.143,7.918,7.382,13.754c-2.484,8.24-4.742,16.651-6.716,25.012c-0.714,3.026-1.392,6.056-2.037,9.08
						c-1.273,5.964-7.138,9.768-13.099,8.493c-6.062-1.17-9.764-7.135-8.494-13.095c0.679-3.185,1.392-6.366,2.144-9.551
						c2.076-8.792,4.454-17.646,7.066-26.311C469.508,873.119,475.277,869.846,480.91,871.176z"/>
					<path style="fill:#91B3FA;" d="M1213.774,709.496c2.136,0.504,4.141,1.647,5.709,3.408c3.969,4.468,7.919,9.104,11.739,13.781
						c3.859,4.722,3.159,11.676-1.563,15.532c-4.723,3.856-11.672,3.164-15.532-1.562c-3.63-4.442-7.382-8.845-11.149-13.089
						c-4.049-4.554-3.638-11.532,0.92-15.582C1206.693,709.503,1210.396,708.699,1213.774,709.496z"/>
				</g>
				<g>
					<path style="fill:#91B3FA;" d="M1169.857,830.687c-0.962-1.979-3.075-3.13-5.26-2.866l-62.339,7.551
						c-18.5-22.753-40.762-42.72-66.284-58.825l0.046-62.753c0.002-2.202-1.394-4.161-3.474-4.88l-71.188-24.607
						c-2.081-0.719-4.388-0.038-5.746,1.693l-38.716,49.388c-30.02-3.093-59.86-1.136-88.462,5.336l-44.37-44.436
						c-1.555-1.557-3.927-1.957-5.906-0.994l-67.737,32.938c-1.981,0.963-3.131,3.076-2.866,5.26l7.551,62.338
						c-22.753,18.5-42.72,40.763-58.824,66.285l-62.755-0.046c-2.201-0.002-4.16,1.393-4.88,3.473l-24.607,71.189
						c-0.719,2.08-0.039,4.388,1.694,5.745l49.388,38.716c-3.094,30.02-1.138,59.859,5.336,88.461l-44.436,44.37
						c-1.556,1.555-1.956,3.927-0.994,5.906l32.939,67.737c0.962,1.981,3.075,3.131,5.26,2.866l62.339-7.552
						c18.499,22.754,40.762,42.721,66.284,58.825l-0.047,62.755c-0.001,2.2,1.393,4.16,3.473,4.88l71.19,24.606
						c2.08,0.72,4.387,0.04,5.746-1.693l38.716-49.388c30.02,3.095,59.86,1.137,88.462-5.336l44.369,44.435
						c1.555,1.558,3.928,1.957,5.907,0.995l67.737-32.939c1.979-0.962,3.13-3.075,2.866-5.26l-7.551-62.338
						c22.753-18.5,42.72-40.763,58.824-66.285l62.755,0.046c2.2,0.002,4.161-1.393,4.879-3.474l24.607-71.188
						c0.719-2.081,0.04-4.388-1.693-5.746l-49.388-38.716c3.094-30.019,1.136-59.859-5.336-88.461l44.435-44.37
						c1.558-1.555,1.957-3.927,0.995-5.907L1169.857,830.687z"/>
					
						<linearGradient id="SVGID_00000181075319006382319010000016375208393439193256_" gradientUnits="userSpaceOnUse" x1="813.1935" y1="1009.1778" x2="964.6259" y2="1009.1778">
						<stop  offset="0" style="stop-color:#DAE3FE"/>
						<stop  offset="1" style="stop-color:#E9EFFD"/>
					</linearGradient>
					<path style="fill:url(#SVGID_00000181075319006382319010000016375208393439193256_);" d="M906.358,935.498
						c35.919,8.48,61.232,42.302,57.989,80.145c-3.567,41.598-40.307,72.533-81.902,68.969
						c-20.153-1.723-38.423-11.198-51.446-26.665c-13.027-15.468-19.251-35.085-17.522-55.234
						c3.567-41.598,40.307-72.533,81.901-68.969C899.128,934.066,902.797,934.657,906.358,935.498z M875.451,1065.656
						c2.774,0.655,5.61,1.112,8.502,1.36c31.89,2.735,60.061-20.99,62.796-52.878c2.734-31.892-20.978-60.073-52.88-62.798
						c-31.89-2.735-60.061,20.99-62.795,52.878c-1.324,15.452,3.446,30.49,13.434,42.352
						C852.627,1056.208,863.405,1062.811,875.451,1065.656z"/>
					
						<linearGradient id="SVGID_00000181784779198664090000000007607159023875963802_" gradientUnits="userSpaceOnUse" x1="701.2731" y1="1009.953" x2="1073.7279" y2="1009.953">
						<stop  offset="0" style="stop-color:#DAE3FE"/>
						<stop  offset="1" style="stop-color:#E9EFFD"/>
					</linearGradient>
					<path style="fill:url(#SVGID_00000181784779198664090000000007607159023875963802_);" d="M929.978,828.716
						c6.169,1.456,12.301,3.232,18.373,5.33l0,0c1.911,0.66,3.813,1.352,5.703,2.073c9.317,3.56,18.336,7.855,26.917,12.819
						c0.117,0.068,0.234,0.135,0.351,0.202c0.331,0.193,0.662,0.387,0.992,0.584c0.644,0.378,1.284,0.764,1.922,1.149
						c1.678,1.016,2.437,2.972,2.011,4.786c-0.104,0.44-0.279,0.873-0.526,1.28c-1.264,2.085-3.979,2.742-6.064,1.484
						c-10.73-6.508-22.232-11.9-34.19-16.029c-59.388-20.539-122.388-7.553-168.312,28.87
						c-25.546,20.256-45.807,47.766-57.223,80.799c-2.003,5.792-3.699,11.643-5.086,17.527c-9.345,39.6-4.823,80.867,13.211,117.95
						c20.713,42.599,56.777,74.582,101.543,90.055c92.46,31.948,193.594-17.257,225.535-109.669
						c1.97-5.698,3.644-11.475,5.018-17.304c5.959-25.261,6.325-51.545,0.979-76.967c-0.138-0.657-0.123-1.309,0.024-1.922
						c0.38-1.612,1.659-2.944,3.389-3.307c2.389-0.495,4.73,1.019,5.23,3.414c5.613,26.69,5.231,54.287-1.025,80.807
						c-1.442,6.119-3.199,12.182-5.265,18.163c-33.536,97.025-139.778,148.658-236.768,115.135
						c-46.999-16.245-84.855-49.821-106.6-94.541c-18.934-38.931-23.679-82.253-13.871-123.826
						c1.458-6.177,3.239-12.319,5.338-18.398c16.247-47,49.822-84.859,94.54-106.605
						C845.063,823.639,888.397,818.899,929.978,828.716z"/>
				</g>
			</g>
			<g>
				<g style="opacity:0.3;">
					<path style="fill:#91B3FA;" d="M1768.208,801.826c2.87,0.678,5.073,3.175,5.238,6.271c0.311,5.779,0.451,11.648,0.415,17.441
						c-0.024,3.764-3.092,6.795-6.861,6.775c-3.771-0.008-6.798-3.096-6.775-6.861c0.035-5.52-0.099-11.113-0.394-16.629
						c-0.204-3.756,2.682-6.967,6.442-7.174C1766.94,801.616,1767.589,801.68,1768.208,801.826z"/>
					<path style="fill:#91B3FA;" d="M1766.202,854.235c3.363,0.794,5.645,4.022,5.186,7.518c-1.293,9.882-3.11,19.811-5.399,29.505
						c-0.482,2.041-0.989,4.083-1.515,6.128c-0.947,3.648-4.827,5.654-8.309,4.9c-3.646-0.943-5.836-4.662-4.898-8.305
						c0.505-1.954,0.991-3.906,1.451-5.856c2.183-9.247,3.916-18.717,5.152-28.139c0.488-3.736,3.91-6.363,7.644-5.878
						C1765.749,854.142,1765.979,854.183,1766.202,854.235z M1748.482,922.774c0.314,0.074,0.63,0.169,0.937,0.289
						c3.505,1.382,5.229,5.34,3.85,8.845c-4.42,11.244-9.578,22.313-15.329,32.893c-1.797,3.311-5.952,4.519-9.246,2.736
						c-3.31-1.801-4.533-5.934-2.736-9.245c5.486-10.096,10.404-20.654,14.622-31.377
						C1741.837,923.723,1745.235,922.008,1748.482,922.774z M1714.67,984.969c0.842,0.199,1.659,0.563,2.406,1.095
						c3.06,2.193,3.757,6.456,1.564,9.516c-7.034,9.799-14.756,19.271-22.959,28.136c-2.559,2.769-6.861,2.937-9.635,0.373
						c-2.763-2.554-2.931-6.87-0.377-9.632c7.821-8.456,15.186-17.479,21.891-26.828
						C1709.221,985.317,1712.061,984.353,1714.67,984.969z M1666.601,1036.95c1.374,0.324,2.656,1.078,3.639,2.234
						c2.427,2.878,2.064,7.184-0.815,9.611c-9.239,7.793-19.038,15.078-29.136,21.656c-3.156,2.053-7.38,1.151-9.432-1.994
						c-2.057-3.153-1.166-7.376,1.992-9.435c9.624-6.266,18.976-13.219,27.783-20.649
						C1662.348,1036.924,1664.569,1036.47,1666.601,1036.95z M1607.296,1075.613c1.918,0.453,3.627,1.732,4.562,3.642
						c1.654,3.38,0.253,7.462-3.128,9.12c-10.843,5.301-22.115,9.987-33.504,13.92c-3.563,1.239-7.443-0.656-8.671-4.216
						c-1.229-3.56,0.66-7.444,4.216-8.671c10.868-3.756,21.62-8.223,31.965-13.285
						C1604.209,1075.403,1605.815,1075.263,1607.296,1075.613z M1540.412,1098.707c2.485,0.587,4.538,2.557,5.106,5.222
						c0.783,3.681-1.57,7.298-5.251,8.084c-11.805,2.508-23.88,4.303-35.882,5.328c-3.763,0.309-7.052-2.466-7.375-6.215
						c-0.322-3.75,2.462-7.053,6.211-7.372c11.447-0.978,22.954-2.688,34.208-5.079
						C1538.45,1098.456,1539.463,1098.483,1540.412,1098.707z M1469.931,1104.746c3.11,0.734,5.369,3.586,5.24,6.895
						c-0.146,3.763-3.314,6.695-7.078,6.552c-12.02-0.464-24.168-1.69-36.111-3.641c-3.713-0.671-6.238-4.121-5.627-7.834
						c0.607-3.715,4.112-6.234,7.828-5.629c11.391,1.868,22.977,3.036,34.438,3.478
						C1469.073,1104.584,1469.51,1104.647,1469.931,1104.746z M1366.709,1081.266c0.382,0.09,0.767,0.215,1.142,0.379
						c9.126,3.94,18.628,7.449,28.244,10.431c1.454,0.46,2.887,0.894,4.322,1.308c3.616,1.059,5.692,4.839,4.637,8.455
						c-1.051,3.625-4.889,5.797-8.453,4.641c-1.529-0.45-3.053-0.906-4.577-1.388c-10.046-3.118-20.007-6.796-29.577-10.93
						c-3.458-1.494-5.05-5.503-3.556-8.96C1360.22,1082.121,1363.55,1080.52,1366.709,1081.266z"/>
				</g>
				<g style="opacity:0.3;">
					<path style="fill:#91B3FA;" d="M1543.082,536.372c3.622,0.855,5.895,4.471,5.085,8.117c-0.816,3.673-4.46,5.994-8.134,5.174
						c-11.066-2.462-22.375-4.27-33.616-5.371c-3.72-0.399-6.491-3.701-6.122-7.452c0.368-3.751,3.707-6.486,7.452-6.122
						c11.787,1.162,23.644,3.051,35.244,5.632C1543.02,536.357,1543.053,536.365,1543.082,536.372z M1576.614,545.978
						c0.24,0.057,0.473,0.126,0.71,0.209c11.196,3.943,22.265,8.609,32.9,13.863c3.375,1.672,4.76,5.755,3.091,9.131
						c-1.667,3.383-5.772,4.747-9.132,3.098c-10.148-5.016-20.711-9.466-31.393-13.233c-3.551-1.249-5.415-5.144-4.164-8.693
						C1569.798,547.03,1573.27,545.188,1576.614,545.978z M1473.797,529.592c2.942,0.695,5.166,3.299,5.246,6.465
						c0.095,3.758-2.878,6.887-6.643,6.983c-11.34,0.292-22.753,1.271-33.931,2.922c-3.735,0.534-7.191-2.026-7.737-5.754
						c-0.551-3.722,2.026-7.191,5.751-7.741c11.717-1.729,23.685-2.755,35.57-3.055
						C1472.656,529.398,1473.239,529.46,1473.797,529.592z M1639.042,576.876c0.754,0.178,1.492,0.489,2.179,0.938
						c9.926,6.523,19.548,13.728,28.594,21.412c2.872,2.436,3.221,6.74,0.785,9.612c-2.433,2.86-6.737,3.212-9.608,0.782
						c-8.628-7.325-17.8-14.19-27.263-20.413c-3.145-2.069-4.02-6.298-1.951-9.443
						C1633.395,577.308,1636.333,576.237,1639.042,576.876z M1404.933,539.762c2.349,0.555,4.332,2.343,5.013,4.83
						c1,3.636-1.138,7.386-4.767,8.384c-10.911,2.993-21.75,6.687-32.223,10.987c-3.489,1.434-7.469-0.238-8.897-3.722
						c-1.428-3.484,0.238-7.469,3.722-8.897c10.982-4.502,22.348-8.379,33.786-11.521
						C1402.707,539.51,1403.861,539.509,1404.933,539.762z M1340.517,566.155c1.798,0.425,3.416,1.573,4.388,3.308
						c1.838,3.286,0.665,7.443-2.622,9.28c-9.9,5.538-19.549,11.722-28.677,18.379c-3.046,2.222-7.313,1.55-9.527-1.49
						c-2.22-3.042-1.552-7.303,1.488-9.521c9.571-6.983,19.685-13.468,30.058-19.27
						C1337.173,565.975,1338.916,565.777,1340.517,566.155z M1284.273,607.224c1.263,0.298,2.456,0.956,3.408,1.981
						c2.573,2.749,2.426,7.065-0.325,9.638c-8.288,7.737-16.17,16.057-23.426,24.722c-2.417,2.878-6.719,3.264-9.603,0.845
						c-2.887-2.419-3.268-6.716-0.848-9.606c7.61-9.081,15.876-17.809,24.566-25.93
						C1279.778,607.256,1282.129,606.717,1284.273,607.224z"/>
					<path style="fill:#91B3FA;" d="M1692.368,622.173c1.28,0.302,2.485,0.977,3.444,2.017c3.953,4.292,7.795,8.723,11.426,13.164
						c2.38,2.916,1.95,7.213-0.965,9.596c-2.917,2.369-7.208,1.944-9.596-0.966c-3.46-4.238-7.128-8.463-10.898-12.561
						c-2.551-2.77-2.37-7.086,0.4-9.633C1687.907,622.201,1690.239,621.671,1692.368,622.173z"/>
				</g>
				<g>
					<path style="fill:#91B3FA;" d="M1666.613,706.593c-0.644-1.324-2.057-2.095-3.519-1.917l-41.714,5.053
						c-12.379-15.225-27.276-28.586-44.354-39.363l0.031-41.992c0.002-1.473-0.932-2.784-2.324-3.265l-47.636-16.466
						c-1.393-0.481-2.936-0.026-3.845,1.133l-25.906,33.048c-20.088-2.07-40.055-0.761-59.195,3.57l-29.69-29.734
						c-1.041-1.042-2.628-1.309-3.953-0.665l-45.327,22.041c-1.325,0.645-2.095,2.058-1.918,3.52l5.053,41.714
						c-15.226,12.379-28.587,27.276-39.363,44.355l-41.992-0.031c-1.473-0.001-2.784,0.932-3.266,2.324l-16.466,47.637
						c-0.481,1.392-0.026,2.937,1.133,3.844l33.048,25.907c-2.071,20.088-0.761,40.055,3.571,59.194l-29.735,29.691
						c-1.042,1.04-1.309,2.628-0.665,3.952l22.041,45.327c0.643,1.325,2.058,2.094,3.519,1.917l41.715-5.054
						c12.378,15.226,27.276,28.586,44.354,39.363l-0.031,41.993c-0.001,1.472,0.932,2.784,2.324,3.265l47.637,16.466
						c1.392,0.481,2.935,0.026,3.844-1.133l25.906-33.048c20.088,2.071,40.056,0.761,59.195-3.57l29.689,29.734
						c1.041,1.043,2.629,1.31,3.953,0.666l45.327-22.041c1.324-0.644,2.095-2.057,1.918-3.52l-5.052-41.714
						c15.226-12.379,28.586-27.276,39.362-44.355l41.993,0.032c1.472,0.001,2.784-0.932,3.264-2.325l16.466-47.635
						c0.481-1.393,0.026-2.936-1.133-3.845l-33.048-25.907c2.07-20.088,0.761-40.055-3.57-59.194l29.734-29.691
						c1.042-1.041,1.309-2.628,0.666-3.953L1666.613,706.593z"/>
					
						<linearGradient id="SVGID_00000130612492101282242190000006484235862885450913_" gradientUnits="userSpaceOnUse" x1="1427.0437" y1="826.0305" x2="1530.1924" y2="826.0305">
						<stop  offset="0" style="stop-color:#DAE3FE"/>
						<stop  offset="1" style="stop-color:#E9EFFD"/>
					</linearGradient>
					<path style="fill:url(#SVGID_00000130612492101282242190000006484235862885450913_);" d="M1490.575,775.856
						c10.704,2.527,20.28,8.393,27.493,16.958c8.872,10.537,13.11,23.9,11.932,37.625c-2.425,28.325-27.449,49.399-55.784,46.978
						c-28.367-2.483-49.41-27.462-46.98-55.792c1.175-13.727,7.627-26.173,18.163-35.042c10.537-8.876,23.901-13.116,37.629-11.934
						C1485.59,774.871,1488.115,775.275,1490.575,775.856z M1469.879,862.951c1.786,0.422,3.621,0.717,5.501,0.881
						c20.842,1.781,39.248-13.72,41.035-34.561c0.864-10.092-2.25-19.926-8.777-27.672c-6.53-7.753-15.684-12.487-25.78-13.366l0,0
						c-10.095-0.865-19.927,2.253-27.676,8.777c-7.753,6.53-12.498,15.685-13.363,25.784
						C1439.193,841.75,1451.88,858.701,1469.879,862.951z"/>
					
						<linearGradient id="SVGID_00000054229930792634599340000001952534097694770867_" gradientUnits="userSpaceOnUse" x1="1349.1936" y1="826.6123" x2="1606.1521" y2="826.6123">
						<stop  offset="0" style="stop-color:#DAE3FE"/>
						<stop  offset="1" style="stop-color:#E9EFFD"/>
					</linearGradient>
					<path style="fill:url(#SVGID_00000054229930792634599340000001952534097694770867_);" d="M1507.112,701.551
						c4.199,0.991,8.38,2.205,12.543,3.639c8.264,2.854,16.247,6.552,23.744,11.003c0.335,0.203,0.671,0.405,1.006,0.607
						c2.592,1.57,3.764,4.589,3.106,7.39c-0.161,0.68-0.431,1.348-0.812,1.976c-1.951,3.22-6.143,4.228-9.363,2.291
						c-6.96-4.223-14.407-7.711-22.131-10.377l-0.003-0.001c-0.423-0.148-0.851-0.289-1.274-0.43
						c-18.338-6.143-37.512-7.481-56.064-4.199c-10.07,1.782-19.961,4.934-29.435,9.436c-0.077,0.036-0.154,0.073-0.231,0.109
						c-0.236,0.116-0.47,0.224-0.703,0.34c-27.575,13.412-48.282,36.757-58.298,65.738c-1.299,3.75-2.395,7.535-3.294,11.345
						c-6.049,25.636-3.12,52.351,8.553,76.363c13.412,27.576,36.759,48.276,65.737,58.292c28.965,9.999,60.13,8.148,87.708-5.256
						c27.575-13.411,48.281-36.756,58.298-65.738c1.277-3.687,2.359-7.427,3.249-11.198c3.858-16.357,4.095-33.37,0.633-49.826
						c-0.212-1.015-0.19-2.022,0.036-2.967c0.587-2.488,2.561-4.547,5.232-5.107c3.687-0.765,7.3,1.58,8.077,5.273
						c3.872,18.414,3.609,37.452-0.704,55.747c-0.997,4.225-2.207,8.407-3.632,12.531c-11.21,32.428-34.373,58.546-65.229,73.549
						c-30.851,14.998-65.688,17.118-98.121,5.883c-32.426-11.206-58.544-34.366-73.544-65.224
						c-13.064-26.858-16.338-56.747-9.57-85.429c1.005-4.257,2.232-8.497,3.68-12.69
						C1378.008,721.847,1443.808,686.606,1507.112,701.551z"/>
				</g>
			</g>
		</g>
		<g>
			
				<linearGradient id="SVGID_00000084528841481522705440000013166103474478164404_" gradientUnits="userSpaceOnUse" x1="-1297.8236" y1="901.0949" x2="-1342.1559" y2="2551.5864" gradientTransform="matrix(-1 0 0 1 -579.8593 0)">
				<stop  offset="0" style="stop-color:#09005D"/>
				<stop  offset="1" style="stop-color:#1A0F91"/>
			</linearGradient>
			<path style="fill:url(#SVGID_00000084528841481522705440000013166103474478164404_);" d="M537.71,2686.966
				c39.749-400.946,139.22-1396.789,160.935-1542.345c27.293-182.942,251.469-142.567,251.469-142.567l48.005,1851.296H685.55
				c-42.007,0-82.068-18.109-110.222-49.859C547.173,2771.741,533.49,2729.53,537.71,2686.966z"/>
			
				<linearGradient id="SVGID_00000151542862969138515860000004885853892858373297_" gradientUnits="userSpaceOnUse" x1="2004.1338" y1="3014.6851" x2="1959.3434" y2="-173.4538">
				<stop  offset="0" style="stop-color:#09005D"/>
				<stop  offset="1" style="stop-color:#1A0F91"/>
			</linearGradient>
			<path style="fill:url(#SVGID_00000151542862969138515860000004885853892858373297_);" d="M3066.498,2900.018
				c97.606-2.071,175.051-82.876,172.981-180.482l-31.88-1502.94c-1.759-82.915-68.187-149.907-151.085-152.368L875.179,999.513
				c-64.871-1.926-118.448,50.245-118.251,115.144l5.232,1723.222c0.185,60.981,50.356,109.949,111.325,108.656L3066.498,2900.018z"
				/>
			<g>
				
					<linearGradient id="SVGID_00000013883901848563719200000005537885014733621434_" gradientUnits="userSpaceOnUse" x1="-4617.4741" y1="3168.5466" x2="-2864.1008" y2="581.7053" gradientTransform="matrix(-0.0212 -0.9997 -0.9997 0.0212 3411.3328 -1525.9956)">
					<stop  offset="0" style="stop-color:#4F52FF"/>
					<stop  offset="1" style="stop-color:#4042E2"/>
				</linearGradient>
				<path style="fill:url(#SVGID_00000013883901848563719200000005537885014733621434_);" d="M3207.078,2773.852
					c31.232-0.481,54.819-28.455,49.967-59.314c-32.187-204.649-133.238-908.587-100.822-1493.059
					c1.477-26.653-19.175-49.319-45.856-50.169l-2191.16-69.898c-30.044-0.961-55.221,22.501-56.36,52.541
					c-9.317,245.722-44.024,1257.619,1.384,1617.322c2.763,21.894,21.589,38.156,43.654,37.817L3207.078,2773.852z"/>
				<path style="fill:#91B3FA;" d="M3151.717,2750.839c30.057-0.459,52.757-27.382,48.086-57.077
					c-30.973-196.944-128.22-874.376-97.026-1436.838c1.423-25.65-18.451-47.463-44.127-48.282l-2108.651-67.266
					c-28.914-0.921-53.143,21.655-54.238,50.563c-8.968,236.471-42.367,1210.264,1.331,1556.423
					c2.659,21.067,20.777,36.717,42.008,36.392L3151.717,2750.839z"/>
			</g>
			<path style="opacity:0.72;fill:#FFFFFF;" d="M1855.688,1565.985l3.22,151.864c0.493,23.18-18.094,42.273-41.277,42.403
				l-155.769,0.879c-22.679,0.129-41.266-17.965-41.747-40.641l-3.387-159.656c-0.508-23.998,19.374-43.427,43.354-42.362
				l155.932,6.913C1837.868,1526.354,1855.224,1544.113,1855.688,1565.985z"/>
			<path style="opacity:0.72;fill:#FFFFFF;" d="M2400.289,1758.974l-155.767,0.882c-22.68,0.126-41.266-17.968-41.748-40.644
				l-2.881-135.792c-0.506-23.859,19.155-43.234,43.005-42.376l155.904,5.599c21.997,0.789,39.556,18.607,40.022,40.614
				l2.743,129.313C2442.059,1739.751,2423.475,1758.843,2400.289,1758.974z"/>
			<path style="opacity:0.72;fill:#FFFFFF;" d="M2263.813,2435.422l148.172-1.435c24.822-0.243,45.216,19.531,45.743,44.349
				l2.943,138.759c0.522,24.647-18.754,45.191-43.386,46.233l-148.07,6.269c-25.378,1.074-46.68-18.918-47.219-44.313
				l-3.048-143.589C2218.414,2456.472,2238.582,2435.668,2263.813,2435.422z"/>
			<path style="opacity:0.72;fill:#FFFFFF;" d="M2513.094,2613.754l-2.879-135.67c-0.527-24.792,19.3-45.237,44.094-45.479
				l149.727-1.451c24.396-0.236,44.441,19.199,44.959,43.589l2.773,130.79c0.514,24.224-18.434,44.415-42.643,45.441l-149.622,6.333
				C2534.562,2658.363,2513.623,2638.713,2513.094,2613.754z"/>
			<path style="opacity:0.72;fill:#FFFFFF;" d="M2500.101,2001.26l-2.362-111.371c-0.571-26.895,21.102-48.991,48.002-48.943
				l142.979,0.258c26.039,0.047,47.278,20.877,47.83,46.912l2.259,106.435c0.557,26.248-20.109,48.058-46.349,48.918l-142.874,4.675
				C2522.916,2049.018,2500.667,2027.937,2500.101,2001.26z"/>
			<path style="opacity:0.72;fill:#FFFFFF;" d="M2506.966,2324.904l-3.612-170.346c-0.52-24.39,18.684-44.657,43.069-45.457
				l146.223-4.784c26.672-0.874,48.92,20.204,49.486,46.884l3.645,171.796c0.529,24.96-19.558,45.478-44.522,45.481l-149.757,0.016
				C2527.268,2368.499,2507.48,2349.128,2506.966,2324.904z"/>
			
				<linearGradient id="SVGID_00000021831568511717978390000004340678516622979973_" gradientUnits="userSpaceOnUse" x1="2039.375" y1="1511.3489" x2="1943.0214" y2="2794.3689">
				<stop  offset="0" style="stop-color:#FF928E"/>
				<stop  offset="1" style="stop-color:#FE7062"/>
			</linearGradient>
			<path style="fill:url(#SVGID_00000021831568511717978390000004340678516622979973_);" d="M2108.98,1760.621l-155.766,0.878
				c-22.679,0.129-41.266-17.965-41.747-40.641l-3.136-147.911c-0.507-23.858,19.155-43.232,43.003-42.376l155.903,5.599
				c21.996,0.791,39.556,18.61,40.022,40.617l3,141.43C2150.75,1741.398,2132.164,1760.49,2108.98,1760.621z"/>
			<path style="opacity:0.72;fill:#FFFFFF;" d="M2215.608,2324.177l-3.381-159.321c-0.526-24.815,19.012-45.437,43.821-46.249
				l148.099-4.848c25.216-0.826,46.251,19.104,46.786,44.328l3.483,164.151c0.539,25.394-19.898,46.27-45.298,46.274l-148.203,0.017
				C2236.261,2368.53,2216.13,2348.824,2215.608,2324.177z"/>
			<path style="opacity:0.72;fill:#FFFFFF;" d="M1949.159,1839.869l170.102,0.308c18.674,0.032,33.903,14.969,34.3,33.638
				l3.249,153.195c0.398,18.825-14.42,34.463-33.237,35.079l-169.978,5.562c-19.125,0.628-35.08-14.488-35.484-33.618
				l-3.374-159.069C1914.327,1855.679,1929.867,1839.833,1949.159,1839.869z"/>
			<path style="opacity:0.72;fill:#FFFFFF;" d="M1862.388,1881.913l3.096,145.9c0.502,23.658-18.124,43.315-41.773,44.088
				l-152.335,4.986c-24.037,0.786-44.088-18.209-44.599-42.254l-3.207-151.164c-0.514-24.24,19.018-44.156,43.263-44.112
				l152.447,0.276C1842.751,1839.677,1861.892,1858.449,1862.388,1881.913z"/>
			<path style="opacity:0.72;fill:#FFFFFF;" d="M2414.715,2052.558l-169.981,5.564c-19.125,0.626-35.078-14.49-35.483-33.62
				l-3.161-149.012c-0.41-19.286,15.132-35.131,34.422-35.096l170.105,0.306c18.673,0.035,33.902,14.972,34.299,33.64l3.035,143.14
				C2448.349,2036.303,2433.532,2051.943,2414.715,2052.558z"/>
			<path style="opacity:0.72;fill:#FFFFFF;" d="M1964.908,2128.136l148.098-4.848c25.215-0.825,46.25,19.103,46.785,44.327
				l3.28,154.653c0.539,25.394-19.899,46.272-45.297,46.274l-148.202,0.018c-24.654,0.003-44.785-19.704-45.307-44.352
				l-3.179-149.823C1920.562,2149.569,1940.098,2128.947,1964.908,2128.136z"/>
			<path style="opacity:0.72;fill:#FFFFFF;" d="M1668.642,2137.834l158.468-5.187c22.329-0.733,40.956,16.917,41.429,39.254
				l3.303,155.698c0.477,22.488-17.621,40.975-40.113,40.977l-158.578,0.018c-21.83,0.004-39.661-17.45-40.123-39.276l-3.194-150.53
				C1629.371,2156.813,1646.671,2138.552,1668.642,2137.834z"/>
			<path style="opacity:0.72;fill:#FFFFFF;" d="M2669.814,1755.439l-118.226,0.667c-31.445,0.177-57.217-24.909-57.882-56.349
				l-2.07-97.538c-0.626-29.472,23.663-53.405,53.122-52.347l131.573,4.724c29.851,1.072,53.682,25.255,54.314,55.121l1.729,81.457
				C2733.118,1726.304,2704.951,1755.24,2669.814,1755.439z"/>
			<path style="opacity:0.72;fill:#FFFFFF;" d="M2801.573,2478.69c-0.566-26.68,20.767-48.684,47.451-48.942l51.502-0.5
				c39.141-0.381,71.146,25.49,71.836,58.073l2,94.288c0.685,32.315-29.699,59.393-68.485,61.035l-55.292,2.34
				c-24.941,1.057-45.881-18.591-46.409-43.551L2801.573,2478.69z"/>
			<path style="opacity:0.72;fill:#FFFFFF;" d="M1145.527,2446.271l101.284-0.982c24.843-0.239,45.254,19.551,45.78,44.387
				l3.748,176.67c0.524,24.667-18.771,45.23-43.421,46.273l-100.824,4.267c-40.202,1.702-73.929-24.507-74.639-58l-3.215-151.508
				C1073.537,2474.156,1105.613,2446.659,1145.527,2446.271z"/>
			<path style="opacity:0.72;fill:#FFFFFF;" d="M2896.434,2368.456l-50.273,0.007c-26.076,0.001-47.368-20.842-47.921-46.911
				l-3.673-173.17c-0.559-26.248,20.107-48.059,46.348-48.917l50.601-1.656c39.896-1.306,73.11,24.807,73.815,58.031l3.213,151.504
				C2969.256,2340.838,2936.67,2368.452,2896.434,2368.456z"/>
			<path style="opacity:0.72;fill:#FFFFFF;" d="M2892.204,2036.931l-63.287,2.071c-20.171,0.66-36.995-15.281-37.425-35.459
				l-2.652-125.076c-0.432-20.341,15.96-37.053,36.303-37.017l63.906,0.117c38.756,0.069,70.164,25.814,70.847,58.076l1.618,76.222
				C2962.205,2008.446,2931.326,2035.65,2892.204,2036.931z"/>
			<path style="fill:#7D97F4;" d="M1129.35,1499.037l101.568,3.648c22.882,0.821,41.148,19.357,41.633,42.25l3.702,174.508
				c0.511,24.112-18.821,43.974-42.94,44.109l-104.583,0.591c-39.007,0.22-70.798-25.606-71.486-58.075l-3.096-145.972
				C1053.416,1525.585,1087.945,1497.549,1129.35,1499.037z"/>
			<path style="opacity:0.72;fill:#FFFFFF;" d="M1972.529,2438.249l148.171-1.438c24.821-0.24,45.216,19.534,45.743,44.351
				l3.143,148.254c0.523,24.648-18.754,45.192-43.386,46.234l-148.068,6.267c-25.377,1.075-46.681-18.916-47.219-44.31
				l-3.249-153.087C1927.131,2459.297,1947.3,2438.494,1972.529,2438.249z"/>
			<path style="opacity:0.72;fill:#FFFFFF;" d="M1133.624,1838.395l102.947,0.185c23.469,0.044,42.608,18.817,43.106,42.28
				l3.522,166.011c0.503,23.657-18.122,43.314-41.772,44.088l-103.364,3.384c-39.895,1.306-73.109-24.807-73.814-58.031
				l-2.902-136.803C1060.635,1865.96,1093.321,1838.323,1133.624,1838.395z"/>
			<path style="opacity:0.72;fill:#FFFFFF;" d="M1137.374,2155.22l107.453-3.516c22.33-0.73,40.956,16.916,41.43,39.254l2.9,136.706
				c0.477,22.488-17.621,40.975-40.113,40.977l-107.966,0.012c-38.819,0.004-70.324-25.761-71.01-58.077l-2.001-94.288
				C1067.375,2183.705,1098.253,2156.501,1137.374,2155.22z"/>
			<path style="opacity:0.72;fill:#FFFFFF;" d="M1577.397,2181.429l3.103,146.201c0.476,22.487-17.621,40.976-40.114,40.979
				l-158.578,0.017c-21.832,0.002-39.659-17.449-40.122-39.277l-2.992-141.033c-0.466-21.974,16.836-40.236,38.805-40.954
				l158.468-5.187C1558.297,2141.443,1576.924,2159.092,1577.397,2181.429z"/>
			<path style="opacity:0.72;fill:#FFFFFF;" d="M1389.999,2443.899l148.096-1.436c24.842-0.241,45.255,19.549,45.781,44.387
				l3.547,167.174c0.524,24.667-18.772,45.227-43.421,46.273l-147.995,6.262c-25.399,1.078-46.72-18.932-47.259-44.348l-3.649-172
				C1344.563,2464.966,1364.75,2444.145,1389.999,2443.899z"/>
			<path style="opacity:0.72;fill:#FFFFFF;" d="M2883.881,1754.228l-61.975,0.35c-19.799,0.113-36.025-15.684-36.445-35.478
				l-2.595-122.335c-0.441-20.827,16.72-37.741,37.54-36.993l65.645,2.356c37.575,1.35,67.255,26.704,67.918,58.022l1.548,72.967
				C2956.224,1726.455,2923.933,1754.002,2883.881,1754.228z"/>
			<path style="opacity:0.72;fill:#FFFFFF;" d="M1681.285,2441.075l145.604-1.413c26.224-0.255,47.77,20.636,48.325,46.853
				l3.292,155.186c0.524,24.668-18.771,45.229-43.425,46.272l-147.992,6.264c-25.399,1.075-46.721-18.934-47.259-44.348
				l-3.448-162.505C1635.847,2462.139,1656.034,2441.32,1681.285,2441.075z"/>
			<path style="opacity:0.72;fill:#FFFFFF;" d="M1564.119,1555.408l3.445,162.389c0.512,24.114-18.824,43.973-42.941,44.11
				l-152.423,0.861c-23.593,0.133-42.93-18.688-43.43-42.277l-3.578-168.73c-0.527-24.819,19.925-44.974,44.736-44.083
				l152.557,5.478C1545.368,1513.979,1563.634,1532.516,1564.119,1555.408z"/>
			<path style="opacity:0.72;fill:#FFFFFF;" d="M1571.033,1881.385l3.309,155.957c0.502,23.658-18.124,43.315-41.772,44.088
				l-152.336,4.986c-24.037,0.787-44.086-18.21-44.596-42.256l-3.42-161.218c-0.515-24.24,19.017-44.154,43.262-44.11l152.446,0.275
				C1551.395,1839.15,1570.536,1857.922,1571.033,1881.385z"/>
			<path style="fill:#FFFFFF;" d="M2900.785,1430.576l-7.019,51.425c-2.247,16.466-16.137,28.853-32.753,29.206l-2.429,0.051
				c-18.651,0.396-34.094-14.403-34.489-33.056l-1.115-52.641c-0.435-20.401,17.184-36.525,37.468-34.292l10.564,1.163
				C2889.897,1394.511,2903.354,1411.75,2900.785,1430.576z"/>
			<path style="fill:#FFFFFF;" d="M2662.092,1417.338l-7.018,51.425c-2.246,16.468-16.137,28.853-32.752,29.205l-2.43,0.053
				c-18.653,0.395-34.093-14.404-34.488-33.056l-1.118-52.64c-0.432-20.402,17.184-36.526,37.467-34.294l10.564,1.163
				C2651.204,1381.272,2664.661,1398.514,2662.092,1417.338z"/>
			<path style="fill:#FFFFFF;" d="M2368.412,1421.381l-7.02,51.426c-2.246,16.466-16.137,28.853-32.752,29.205l-2.43,0.051
				c-18.652,0.396-34.093-14.404-34.488-33.056l-1.118-52.64c-0.432-20.402,17.184-36.525,37.469-34.292l10.564,1.163
				C2357.524,1385.316,2370.98,1402.555,2368.412,1421.381z"/>
			<path style="fill:#FFFFFF;" d="M2082.281,1408.568l-7.017,51.425c-2.247,16.467-16.137,28.853-32.753,29.206l-2.429,0.049
				c-18.652,0.398-34.094-14.403-34.489-33.055l-1.117-52.64c-0.433-20.401,17.184-36.525,37.466-34.293l10.565,1.163
				C2071.392,1372.502,2084.851,1389.74,2082.281,1408.568z"/>
			<path style="fill:#FFFFFF;" d="M1788.395,1371.196l-7.019,51.427c-2.247,16.465-16.138,28.853-32.752,29.205l-2.43,0.051
				c-18.652,0.396-34.093-14.405-34.488-33.057l-1.118-52.637c-0.432-20.402,17.184-36.526,37.468-34.295l10.564,1.163
				C1777.507,1335.131,1790.963,1352.371,1788.395,1371.196z"/>
			<path style="fill:#FFFFFF;" d="M1477.067,1377.801l-7.017,51.426c-2.248,16.465-16.138,28.851-32.754,29.204l-2.429,0.051
				c-18.652,0.396-34.093-14.404-34.489-33.056l-1.116-52.638c-0.432-20.402,17.184-36.526,37.467-34.295l10.565,1.163
				C1466.18,1341.736,1479.637,1358.976,1477.067,1377.801z"/>
			<path style="fill:#FFFFFF;" d="M1214.288,1372.297l-7.018,51.425c-2.246,16.466-16.137,28.853-32.752,29.205l-2.43,0.051
				c-18.652,0.396-34.093-14.404-34.488-33.056l-1.118-52.64c-0.432-20.402,17.184-36.525,37.469-34.292l10.564,1.163
				C1203.401,1336.232,1216.857,1353.471,1214.288,1372.297z"/>
			<g>
				
					<linearGradient id="SVGID_00000067953704420032958200000000562832928351074451_" gradientUnits="userSpaceOnUse" x1="1297.8936" y1="-8430.2207" x2="838.0805" y2="-7098.1128" gradientTransform="matrix(-1 0 0 1 -579.8593 0)">
					<stop  offset="0" style="stop-color:#FF928E"/>
					<stop  offset="1" style="stop-color:#FE7062"/>
				</linearGradient>
				<path style="fill:url(#SVGID_00000067953704420032958200000000562832928351074451_);" d="M1634.505,1952.921
					c0.646-11.114,12.257-15.875,20.809-9.142c24.153,19.022,33.971,48.573,45.872,76.131c13.87,32.115,27.163,64.48,38.973,97.414
					c12.451,34.718,23.064,70.061,31.147,105.951c16.027-42.867,34.655-84.623,58.28-124.242
					c6.271-10.519,23.986-4.366,20.474,8.126c-20.431,72.626-45.571,143.777-64.813,216.773c-6.79,25.756-42.016,19.67-44.639-5.081
					c-7.163-67.599-23.488-132.265-46.661-196.113c-11.019-30.353-23.316-60.233-36.059-89.897
					C1646.6,2006.576,1632.804,1982.09,1634.505,1952.921z"/>
				
					<linearGradient id="SVGID_00000030473234117526291240000012842672300811864471_" gradientUnits="userSpaceOnUse" x1="1350.2529" y1="-8412.124" x2="890.439" y2="-7080.0132" gradientTransform="matrix(-1 0 0 1 -579.8593 0)">
					<stop  offset="0" style="stop-color:#FF928E"/>
					<stop  offset="1" style="stop-color:#FE7062"/>
				</linearGradient>
				<path style="fill:url(#SVGID_00000030473234117526291240000012842672300811864471_);" d="M1601.324,2006.789
					c21.011-3.933,28.653,22.961,9.386,31.437c-127.488,56.092-144.156,214.146-52.057,309.85
					c42.6,44.265,99.119,78.622,152.638,108.155c54.282,29.953,114.877,52.837,177.868,46.509
					c146.011-14.668,165.86-163.278,122.205-277.952c-41.986-110.294-131.912-195.442-242.003-236.258
					c-14.222-5.271-8.712-28.422,5.866-23.195c103.295,37.041,191.211,110.112,245.675,205.733
					c50.099,87.954,80.154,212.02,14.574,300.312c-67.86,91.363-196.668,92.999-293.716,54.911
					c-106.751-41.894-239.669-119.618-282.166-232.41C1415.075,2175.721,1470.02,2031.356,1601.324,2006.789z"/>
			</g>
			<g>
				<path style="fill:#FFFFFF;" d="M756.929,2824.816c3.037,0,5.508-2.45,5.53-5.492l6.72-970.315
					c0.021-3.055-2.438-5.548-5.493-5.57c-0.012,0-0.026,0-0.026,0c-3.049,0-5.521,2.45-5.543,5.492l-6.72,970.314
					c-0.021,3.055,2.438,5.548,5.493,5.57C756.89,2824.816,756.916,2824.816,756.929,2824.816z"/>
				<path style="fill:#91B3FA;" d="M765.192,1631.706c3.036,0,5.508-2.452,5.53-5.494l2.347-338.887
					c0.021-3.054-2.438-5.547-5.493-5.569c-0.013,0-0.026,0-0.026,0c-3.049,0-5.521,2.451-5.543,5.493l-2.347,338.887
					c-0.021,3.055,2.438,5.548,5.493,5.568L765.192,1631.706z"/>
			</g>
			
				<linearGradient id="SVGID_00000060031178737693560360000003973734237058353042_" gradientUnits="userSpaceOnUse" x1="-3341.9575" y1="1133.0902" x2="-3484.5056" y2="1409.6331" gradientTransform="matrix(-1 0 0 1 -579.8593 0)">
				<stop  offset="0" style="stop-color:#4F52FF"/>
				<stop  offset="1" style="stop-color:#4042E2"/>
			</linearGradient>
			
				<circle style="fill:url(#SVGID_00000060031178737693560360000003973734237058353042_);" cx="2841.979" cy="1288.058" r="59.121"/>
			
				<linearGradient id="SVGID_00000022529682458154224350000007881019321973793939_" gradientUnits="userSpaceOnUse" x1="-2857.5522" y1="1128.5419" x2="-3000.1001" y2="1405.0846" gradientTransform="matrix(-1 0 0 1 -579.8593 0)">
				<stop  offset="0" style="stop-color:#4F52FF"/>
				<stop  offset="1" style="stop-color:#4042E2"/>
			</linearGradient>
			
				<circle style="fill:url(#SVGID_00000022529682458154224350000007881019321973793939_);" cx="2357.573" cy="1283.509" r="59.121"/>
			
				<linearGradient id="SVGID_00000106858714596547065610000017055661371770577592_" gradientUnits="userSpaceOnUse" x1="-2368.5984" y1="1112.6226" x2="-2511.1462" y2="1389.1652" gradientTransform="matrix(-1 0 0 1 -579.8593 0)">
				<stop  offset="0" style="stop-color:#4F52FF"/>
				<stop  offset="1" style="stop-color:#4042E2"/>
			</linearGradient>
			<circle style="fill:url(#SVGID_00000106858714596547065610000017055661371770577592_);" cx="1868.619" cy="1267.59" r="59.121"/>
			
				<linearGradient id="SVGID_00000168818159897882176610000000206066448039594154_" gradientUnits="userSpaceOnUse" x1="-1884.1929" y1="1089.8804" x2="-2026.741" y2="1366.4231" gradientTransform="matrix(-1 0 0 1 -579.8593 0)">
				<stop  offset="0" style="stop-color:#4F52FF"/>
				<stop  offset="1" style="stop-color:#4042E2"/>
			</linearGradient>
			
				<circle style="fill:url(#SVGID_00000168818159897882176610000000206066448039594154_);" cx="1384.214" cy="1244.848" r="59.121"/>
			<g>
				
					<linearGradient id="SVGID_00000166677902999374818780000008272104566366334911_" gradientUnits="userSpaceOnUse" x1="-1631.3983" y1="487.655" x2="-2148.8699" y2="1491.5485" gradientTransform="matrix(-1 0 0 1 -579.8593 0)">
					<stop  offset="0" style="stop-color:#FF928E"/>
					<stop  offset="1" style="stop-color:#FE7062"/>
				</linearGradient>
				<path style="fill:url(#SVGID_00000166677902999374818780000008272104566366334911_);" d="M1339.249,835.18
					c99.489,21.707,90.102,283.451,82.096,389.716c-1.884,25.006-22.711,44.295-47.787,44.295c-6.962,0-13.595-2.998-18.245-8.179
					c-4.65-5.18-6.872-12.112-6.131-19.034c8.594-80.317,26.88-311.612-46.362-323.98c0,0-52.538-9.296-61.377,92.471h-56.839
					C1184.604,1010.47,1214.168,807.889,1339.249,835.18z"/>
				
					<linearGradient id="SVGID_00000177477670565744873870000002666995444389509505_" gradientUnits="userSpaceOnUse" x1="-2115.7732" y1="500.9683" x2="-2633.4023" y2="1505.1677" gradientTransform="matrix(-1 0 0 1 -579.8593 0)">
					<stop  offset="0" style="stop-color:#FF928E"/>
					<stop  offset="1" style="stop-color:#FE7062"/>
				</linearGradient>
				<path style="fill:url(#SVGID_00000177477670565744873870000002666995444389509505_);" d="M1823.655,848.639
					c99.489,21.707,90.102,283.544,82.096,389.808c-1.884,25.006-22.711,44.342-47.787,44.342c-6.962,0-13.595-2.975-18.245-8.156
					c-4.65-5.18-6.872-12.1-6.131-19.022c8.594-80.317,26.88-311.792-46.362-324.16c0,0-52.538-7.264-61.377,92.292h-56.84
					C1669.009,1023.744,1698.574,821.349,1823.655,848.639z"/>
				
					<linearGradient id="SVGID_00000120532706192181673430000003778209131372668551_" gradientUnits="userSpaceOnUse" x1="-2600.1584" y1="514.3956" x2="-3117.8911" y2="1518.7957" gradientTransform="matrix(-1 0 0 1 -579.8593 0)">
					<stop  offset="0" style="stop-color:#FF928E"/>
					<stop  offset="1" style="stop-color:#FE7062"/>
				</linearGradient>
				<path style="fill:url(#SVGID_00000120532706192181673430000003778209131372668551_);" d="M2308.06,862.163
					c99.489,21.707,90.102,283.605,82.096,389.869c-1.884,25.006-22.71,44.373-47.787,44.373c-6.961,0-13.595-2.959-18.245-8.14
					c-4.65-5.18-6.872-12.093-6.131-19.015c8.594-80.317,26.88-311.91-46.362-324.278c0,0-52.513-5.914-61.352,94.151l-56.864-1.977
					C2153.415,1037.146,2182.979,834.872,2308.06,862.163z"/>
				
					<linearGradient id="SVGID_00000130620616081173111890000001019693150321244845_" gradientUnits="userSpaceOnUse" x1="-3084.5176" y1="529.814" x2="-3602.488" y2="1534.6755" gradientTransform="matrix(-1 0 0 1 -579.8593 0)">
					<stop  offset="0" style="stop-color:#FF928E"/>
					<stop  offset="1" style="stop-color:#FE7062"/>
				</linearGradient>
				<path style="fill:url(#SVGID_00000130620616081173111890000001019693150321244845_);" d="M2792.466,877.802
					c99.488,21.707,90.102,283.745,82.096,390.009c-1.884,25.006-22.71,44.443-47.787,44.443c-6.962,0-13.595-2.924-18.245-8.105
					c-4.65-5.18-6.872-12.075-6.131-18.997c8.594-80.317,26.881-312.182-46.362-324.549c0,0-52.538-7.653-61.377,91.902h-56.839
					C2637.82,1052.504,2667.385,850.511,2792.466,877.802z"/>
			</g>
		</g>
		<g>
			<g>
				<g>
					
						<linearGradient id="SVGID_00000174565988740954321800000014311399681933339785_" gradientUnits="userSpaceOnUse" x1="1035.2223" y1="1695.6958" x2="815.1114" y2="1966.2911" gradientTransform="matrix(-1 0 0 1 1938 0)">
						<stop  offset="0" style="stop-color:#FEBBBA"/>
						<stop  offset="1" style="stop-color:#FF928E"/>
					</linearGradient>
					<path style="fill:url(#SVGID_00000174565988740954321800000014311399681933339785_);" d="M843.539,1841.369l54.489,172.804
						c0,0,63.233,46.596,143.865,2.122c12.391-6.788,25.204-15.703,38.192-27.33c97.859-87.336,32.932-214.393,32.932-214.393
						s74.688-30.131,41.504-93.532c-2.292-4.327-8.656-3.649-10.016,1.104c-4.836,17.484-16.635,48.039-41.335,58.904
						c-1.272,0.509-2.462,1.104-3.563,1.611c-1.104-3.308-1.104-7.212,1.527-11.374c7.726-11.712-6.194-27.753-6.194-27.753
						s-0.932,14.175-11.629,23.002c-9.249,7.723-13.663,24.698-7.384,38.702c13.411,51.945,33.439,120.607-44.56,170.854
						c-7.978,5.091-16.295,8.233-24.782,9.592C932.065,1958.154,843.539,1841.369,843.539,1841.369z"/>
					
						<linearGradient id="SVGID_00000010282988470540304960000013420055402672534708_" gradientUnits="userSpaceOnUse" x1="426.9033" y1="2382.6477" x2="895.7337" y2="1970.1667">
						<stop  offset="0" style="stop-color:#FF928E"/>
						<stop  offset="1" style="stop-color:#FE7062"/>
					</linearGradient>
					<path style="fill:url(#SVGID_00000010282988470540304960000013420055402672534708_);" d="M843.539,1841.369l54.489,172.804
						c0,0,63.233,46.596,143.865,2.122l-35.31-70.615C932.065,1958.154,843.539,1841.369,843.539,1841.369z"/>
					
						<linearGradient id="SVGID_00000005259955132228465990000017246886470646110366_" gradientUnits="userSpaceOnUse" x1="874.751" y1="1465.7253" x2="474.1238" y2="2246.6958">
						<stop  offset="0" style="stop-color:#E1473D"/>
						<stop  offset="1" style="stop-color:#E9605A"/>
					</linearGradient>
					<path style="fill:url(#SVGID_00000005259955132228465990000017246886470646110366_);" d="M827.204,1629.436
						c0,0,30.851-107.458-84.588-77.904c0,0-56.557-7.881-58.171,45.364c0,0-24.445,36.844-25.476,82.24
						c0,0-111.143,28.732-128.679,73.264c-17.948,45.582-7.991,117.985,37.643,130.477c0,0-36.279,19.299-17.923,60.512
						c18.358,41.214,107.056,68.486,157.852,16.645c0,0,148.389,16.071,142.969-88.349c0,0,67.759-46.048-6.538-130.702
						C769.997,1656.331,827.204,1629.436,827.204,1629.436z"/>
					
						<linearGradient id="SVGID_00000163058912573762414890000005378090685328110253_" gradientUnits="userSpaceOnUse" x1="410.626" y1="2364.1465" x2="879.4557" y2="1951.666">
						<stop  offset="0" style="stop-color:#FF928E"/>
						<stop  offset="1" style="stop-color:#FE7062"/>
					</linearGradient>
					<path style="fill:url(#SVGID_00000163058912573762414890000005378090685328110253_);" d="M836.239,1822.357
						c-23.331-6.994-91.26-19.908-155.874,39.72c-10.959,10.113-15.437,25.479-11.529,39.869
						c17.355,63.892,63.144,252.657,22.995,334.332c0,0,70.752,77.994,147.939,15.132c0,0,34.632-150.938,79.992-217.199
						c31.318-45.746-49.937-171.785-70.495-202.235C846.154,1827.366,841.566,1823.955,836.239,1822.357z"/>
					
						<linearGradient id="SVGID_00000030457672508499441490000012978945168248086923_" gradientUnits="userSpaceOnUse" x1="779.3242" y1="1892.5206" x2="774.8163" y2="1709.9468">
						<stop  offset="0" style="stop-color:#FEBBBA"/>
						<stop  offset="1" style="stop-color:#FF928E"/>
					</linearGradient>
					<path style="fill:url(#SVGID_00000030457672508499441490000012978945168248086923_);" d="M771.82,1695.422
						c0,0-34.503,97.595-37.098,140.651c0,0,38.133,17.341,74.066-11.927c0,0,3.771-97.483,9.218-114.937L771.82,1695.422z"/>
					
						<linearGradient id="SVGID_00000007412453993675743570000009057832703793074329_" gradientUnits="userSpaceOnUse" x1="-14198.3877" y1="5221.543" x2="-14023.7949" y2="5422.2783" gradientTransform="matrix(-0.9534 0.3019 0.3019 0.9534 -14275.5928 932.4522)">
						<stop  offset="0" style="stop-color:#FEBBBA"/>
						<stop  offset="1" style="stop-color:#FF928E"/>
					</linearGradient>
					<path style="fill:url(#SVGID_00000007412453993675743570000009057832703793074329_);" d="M827.148,1599.014
						c0,0,93.191,124.138,40.122,162.079c-53.069,37.943-119.406-50.274-119.406-50.274s-22.56-68.614-1.221-92.572
						C767.982,1594.288,827.148,1599.014,827.148,1599.014z"/>
					
						<linearGradient id="SVGID_00000023969132589444831380000009442436251211484563_" gradientUnits="userSpaceOnUse" x1="849.9457" y1="1453.0006" x2="449.3192" y2="2233.97">
						<stop  offset="0" style="stop-color:#E1473D"/>
						<stop  offset="1" style="stop-color:#E9605A"/>
					</linearGradient>
					<path style="fill:url(#SVGID_00000023969132589444831380000009442436251211484563_);" d="M784.678,1569.822
						c0,0,41.678,8.846,47.928,27.463c6.249,18.617-57.926,37.526-76.003,38.802l-12.801,76.019c0,0-44.779-70.175-28.672-111.691
						C731.239,1558.898,784.678,1569.822,784.678,1569.822z"/>
					
						<linearGradient id="SVGID_00000014608907184968773810000011126152207201403062_" gradientUnits="userSpaceOnUse" x1="-14154.7656" y1="5183.6021" x2="-13980.1768" y2="5384.3325" gradientTransform="matrix(-0.9534 0.3019 0.3019 0.9534 -14275.5928 932.4522)">
						<stop  offset="0" style="stop-color:#FEBBBA"/>
						<stop  offset="1" style="stop-color:#FF928E"/>
					</linearGradient>
					<path style="fill:url(#SVGID_00000014608907184968773810000011126152207201403062_);" d="M765.137,1701.118
						c0,0-36.075-39.843-49.418-13.001c-13.345,26.84,32.7,45.674,48.172,32.287L765.137,1701.118z"/>
					
						<linearGradient id="SVGID_00000101088685127295259570000012436742305435863971_" gradientUnits="userSpaceOnUse" x1="13578.7236" y1="3476.8772" x2="13995.2813" y2="2741.563" gradientTransform="matrix(1 -0.0095 0.0095 1 -13093.5254 56.9446)">
						<stop  offset="0" style="stop-color:#FEBBBA"/>
						<stop  offset="1" style="stop-color:#FF928E"/>
					</linearGradient>
					<path style="fill:url(#SVGID_00000101088685127295259570000012436742305435863971_);" d="M929.876,2568.32
						c-0.265,6.852,11.766,61.204,18.314,90.195c2.635,11.665,0.8,23.872-5.139,34.252l-226.752,381.633
						c-2.743,4.616-4.74,9.617-5.954,14.847c-4.156,17.91-12.775,61.801-8.275,101.73l11.731,24.364l-50.732-11.519l-11.037-136.238
						l14.362-8.758c12.406-7.565,22.069-18.874,27.6-32.313c20.503-49.804,71.42-176.582,84.544-238.367
						c14.915-70.219,92.893-127.252,92.893-127.252l-13.7-32.386L929.876,2568.32z"/>
					
						<linearGradient id="SVGID_00000090984936903411216150000013835746960925696165_" gradientUnits="userSpaceOnUse" x1="585.2501" y1="2893.4048" x2="713.7277" y2="3350.9658">
						<stop  offset="0" style="stop-color:#09005D"/>
						<stop  offset="1" style="stop-color:#1A0F91"/>
					</linearGradient>
					<path style="fill:url(#SVGID_00000090984936903411216150000013835746960925696165_);" d="M606.688,3156.939
						c0,0,27.396-43.433,30.619-60.34c3.222-16.908,12.196-46.762,29.087-37.775c0,0,7.959,82.13,5.216,114.222
						c-2.745,32.091,36.277,31.06,36.277,31.06s10.755,1.51,18.632,9.384c5.439,5.438,1.549,14.871-6.125,15.364
						c-12.769,0.824-33.052,1.04-54.35-3.076c-7.443-1.439-12.961-7.772-13.412-15.339l-5.621-94.525l-34.558,43.635
						L606.688,3156.939z"/>
					
						<linearGradient id="SVGID_00000058551246826386526060000001621271766578003617_" gradientUnits="userSpaceOnUse" x1="847.3002" y1="2878.7229" x2="1268.7957" y2="2592.4661">
						<stop  offset="0" style="stop-color:#FEBBBA"/>
						<stop  offset="1" style="stop-color:#FF928E"/>
					</linearGradient>
					<path style="fill:url(#SVGID_00000058551246826386526060000001621271766578003617_);" d="M794.418,2629.11
						c0,0-7.997,341.368-9.08,389.852c-1.082,48.482,7.656,155.925,56.259,188.042l-21.149,15.657c0,0-26.431-22.464-52.252-65.697
						c-29.007-48.568-37.777-57.442-37.777-57.442l9.625-19.711c4.214-8.629,5.453-18.393,3.512-27.798
						c-10.488-50.834-45.526-219.915-55.085-256.328c-11.283-42.981-12.085-100.38,27.167-148.427
						C754.889,2599.212,794.418,2629.11,794.418,2629.11z"/>
					
						<linearGradient id="SVGID_00000023995638213929042310000017532278106111782055_" gradientUnits="userSpaceOnUse" x1="1212.7639" y1="2820.3716" x2="984.5584" y2="3008.0073">
						<stop  offset="0" style="stop-color:#09005D"/>
						<stop  offset="1" style="stop-color:#1A0F91"/>
					</linearGradient>
					<path style="fill:url(#SVGID_00000023995638213929042310000017532278106111782055_);" d="M749.537,3238.047
						c-1.509,0.014-2.79-1.065-3.003-2.558c-1.619-11.381-8.35-57.007-13.861-68.821c-6.312-13.531-26.927-70.479,0.012-75.313
						c0,0,66.973,97.848,79.83,111.04c12.856,13.193,29.082,4.609,29.082,4.609s12.527,3.7,21.973,15.773
						c4.496,5.745,0.309,14.18-6.987,14.249l-45.111,0.431c-13.1,0.125-24.884-7.834-29.755-19.998
						c-7.94-19.833-21.58-48.925-37.478-61.83l8.262,79.099C752.682,3236.492,751.309,3238.031,749.537,3238.047z"/>
					
						<linearGradient id="SVGID_00000089563674102736328240000004510269617510313902_" gradientUnits="userSpaceOnUse" x1="637.112" y1="2243.7354" x2="895.7444" y2="2649.4336">
						<stop  offset="0" style="stop-color:#4F52FF"/>
						<stop  offset="1" style="stop-color:#4042E2"/>
					</linearGradient>
					<path style="fill:url(#SVGID_00000089563674102736328240000004510269617510313902_);" d="M850.446,2214.605
						c0,0-10.165,32.402,5.452,85.77l96.878,338.304c1.522,5.316-1.345,10.879-6.551,12.747
						c-28.977,10.401-124.239,39.797-254.278,30.833c-6.547-0.451-12.038-5.088-13.461-11.495
						c-8.568-38.568-37.804-170.157-43.824-197.195c-22.935-103.025-48.544-214.13,64.117-281.312
						C750.702,2214.497,799.129,2227.606,850.446,2214.605z"/>
					
						<linearGradient id="SVGID_00000083788867058379259210000007497037063896711301_" gradientUnits="userSpaceOnUse" x1="317.7969" y1="2258.6335" x2="786.6261" y2="1846.1534">
						<stop  offset="0" style="stop-color:#FF928E"/>
						<stop  offset="1" style="stop-color:#FE7062"/>
					</linearGradient>
					<path style="fill:url(#SVGID_00000083788867058379259210000007497037063896711301_);" d="M537.261,2083.81
						c0,0-0.74,0.049-0.74-0.04c12.205-9.586,77.017-9.937,77.017-9.937s47.07-68.158,63.021-85.066
						c0.518-0.523,1.047-1.045,1.481-1.481c0.349-0.35,0.698-0.699,1.217-1.135c5.839-5.403,12.031-10.808,18.743-16.385
						c7.403-6.188,13.333-14.121,16.907-23.098c24.927-62.754,5.23-103.804-40.093-77.483c0,0-95.79,79.575-133.002,192.357
						c-0.435,1.397-0.784,2.703-1.226,4.011c-1.481,5.228-2.963,10.197-4.265,14.817c-0.093,0.349,0.284,0.845,0.2,1.193
						C536.256,2082.348,537.523,2083.025,537.261,2083.81z"/>
				</g>
				
					<linearGradient id="SVGID_00000123424860890375981230000012579841877915250579_" gradientUnits="userSpaceOnUse" x1="3569.8564" y1="2139.3152" x2="3826.1777" y2="2139.3152" gradientTransform="matrix(1 0 0 1 -3037.2822 0)">
					<stop  offset="0" style="stop-color:#FEBBBA"/>
					<stop  offset="1" style="stop-color:#FF928E"/>
				</linearGradient>
				<path style="fill:url(#SVGID_00000123424860890375981230000012579841877915250579_);" d="M774.162,2124.77
					c0,0-111.324,62.915-148.888,9.193c-7.798-11.156-13.658-49.561-11.737-60.13c-33.369-16.85-58.481,7.916-77.217,6.538
					c-4.915,25.751-7.302,50.819,7.83,78.5c65.797,120.362,244.745-6.652,244.745-6.652L774.162,2124.77z"/>
				<g>
					
						<linearGradient id="SVGID_00000083773015309545235220000016686858245434383506_" gradientUnits="userSpaceOnUse" x1="3904.7827" y1="1959.6476" x2="4047.6484" y2="2554.9224" gradientTransform="matrix(1 0 0 1 -3037.2822 0)">
						<stop  offset="0" style="stop-color:#09005D"/>
						<stop  offset="1" style="stop-color:#1A0F91"/>
					</linearGradient>
					<path style="fill:url(#SVGID_00000083773015309545235220000016686858245434383506_);" d="M760.786,2204.365l60.758-212.179
						c0.689-2.407,2.744-4.164,5.233-4.455c11.008-1.285,42.904-4.89,79.734-8.005c44.362-3.754,95.879-6.793,126.663-4.206
						c4.376,0.366,7.02,4.996,5.074,8.935c-17.506,35.415-89.514,179.485-125.575,226.679c-1.195,1.563-3.042,2.477-5.01,2.459
						l-140.967-1.312C762.596,2212.244,759.657,2208.309,760.786,2204.365z"/>
					
						<linearGradient id="SVGID_00000021810540782232969000000016983655271269403572_" gradientUnits="userSpaceOnUse" x1="3994.2307" y1="1865.816" x2="3963.8042" y2="1999.4279" gradientTransform="matrix(1 0 0 1 -3037.2822 0)">
						<stop  offset="0" style="stop-color:#4F52FF"/>
						<stop  offset="1" style="stop-color:#4042E2"/>
					</linearGradient>
					<path style="fill:url(#SVGID_00000021810540782232969000000016983655271269403572_);" d="M912.813,1961.331l44.05-7.339
						c2.346-0.39,4.267,1.85,3.522,4.109l-4.361,13.213c-0.38,1.151-1.381,1.983-2.583,2.143l-42.39,5.663
						c-2.192,0.292-4-1.701-3.496-3.855l2.699-11.536C910.545,1962.487,911.555,1961.542,912.813,1961.331z"/>
					
						<linearGradient id="SVGID_00000141448597901895188700000005182595952169596324_" gradientUnits="userSpaceOnUse" x1="3978.3066" y1="1921.8617" x2="3963.7546" y2="2009.1731" gradientTransform="matrix(1 0 0 1 -3037.2822 0)">
						<stop  offset="0" style="stop-color:#4F52FF"/>
						<stop  offset="1" style="stop-color:#4042E2"/>
					</linearGradient>
					<path style="fill:url(#SVGID_00000141448597901895188700000005182595952169596324_);" d="M879.83,1998.623l3.63-18.902
						c0.363-1.895,1.929-3.328,3.85-3.524l88.971-9.028c2.995-0.304,5.393,2.44,4.69,5.366l-5.658,23.555
						c-0.451,1.884-2.092,3.246-4.027,3.342l-86.943,4.378C881.512,2003.953,879.296,2001.407,879.83,1998.623z"/>
					
						<linearGradient id="SVGID_00000073697241996662923600000004430842102452642730_" gradientUnits="userSpaceOnUse" x1="3806.8875" y1="2117.1296" x2="3887.832" y2="2117.1296" gradientTransform="matrix(1 0 0 1 -3037.2822 0)">
						<stop  offset="0" style="stop-color:#FEBBBA"/>
						<stop  offset="1" style="stop-color:#FF928E"/>
					</linearGradient>
					<path style="fill:url(#SVGID_00000073697241996662923600000004430842102452642730_);" d="M775.466,2153.103
						c0,0-8.464-34.803-5.05-47.149c3.413-12.348,10.029-28.222,32.076-24.694c22.049,3.527,48.057,12.816,48.057,12.816
						s-1.314,16.082-18.072,10.894l10.392,8.04c0,0-1.486,12.877-15.64,5.998l9.666,10.663c0,0-6.08,10.575-16.493,3.793
						C809.991,2126.679,804.998,2157.293,775.466,2153.103z"/>
				</g>
			</g>
		</g>
		<g>
			
				<linearGradient id="SVGID_00000132777755848876636610000005631594841146807961_" gradientUnits="userSpaceOnUse" x1="2751.2874" y1="3174.4761" x2="2934.2578" y2="3174.4761">
				<stop  offset="0" style="stop-color:#4F52FF"/>
				<stop  offset="1" style="stop-color:#4042E2"/>
			</linearGradient>
			<path style="fill:url(#SVGID_00000132777755848876636610000005631594841146807961_);" d="M2756.454,3165.626
				c31.345,2.709,85.746,7.111,128.633,8.998c25.781,1.135,40.623-1.39,49.17-4.812c-0.014,0.964-0.041,1.875-0.079,2.72
				c-0.203,4.512-3.87,8.123-8.428,8.378c-81.038,4.523-145.487,1.565-168.431,0.169c-4.744-0.289-7.572-5.445-5.146-9.489
				C2753.388,3169.567,2754.858,3167.585,2756.454,3165.626z"/>
			
				<linearGradient id="SVGID_00000040543597738271018590000012576146212915673234_" gradientUnits="userSpaceOnUse" x1="-2410.7385" y1="3138.6162" x2="-2232.9241" y2="3138.6162" gradientTransform="matrix(-1 0 0 1 523.5299 0)">
				<stop  offset="0" style="stop-color:#09005D"/>
				<stop  offset="1" style="stop-color:#1A0F91"/>
			</linearGradient>
			<path style="fill:url(#SVGID_00000040543597738271018590000012576146212915673234_);" d="M2885.087,3174.625
				c-42.887-1.888-97.288-6.289-128.633-8.998c30.817-37.81,128.633-63.293,128.633-63.293h27.626
				c19.001,27.389,21.753,53.466,21.544,67.479C2925.71,3173.235,2910.868,3175.759,2885.087,3174.625z"/>
			
				<linearGradient id="SVGID_00000085962517115657209840000006408615597866944184_" gradientUnits="userSpaceOnUse" x1="-2393.8354" y1="3088.551" x2="-2342.2964" y2="3088.551" gradientTransform="matrix(-1 0 0 1 523.5299 0)">
				<stop  offset="0" style="stop-color:#FEBBBA"/>
				<stop  offset="1" style="stop-color:#FF928E"/>
			</linearGradient>
			<path style="fill:url(#SVGID_00000085962517115657209840000006408615597866944184_);" d="M2917.365,3057.232l-2.585,51.159
				c-0.28,5.54-4.427,10.195-9.975,10.989c-5.52,0.789-12.913,0.89-20.753-1.719c-4.823-1.605-8.404-5.669-9.293-10.626
				l-8.933-49.802H2917.365z"/>
			<g>
				
					<linearGradient id="SVGID_00000096766582457381032460000008707574953557811603_" gradientUnits="userSpaceOnUse" x1="3190.7185" y1="3219.8469" x2="3260.8359" y2="3219.8469">
					<stop  offset="0" style="stop-color:#4F52FF"/>
					<stop  offset="1" style="stop-color:#4042E2"/>
				</linearGradient>
				<path style="fill:url(#SVGID_00000096766582457381032460000008707574953557811603_);" d="M3238.004,3224.643
					c13.593-2.45,19.743-11.576,22.322-21.333c0.017,0.088,0.034,0.175,0.051,0.262c2,10.292-2.636,20.958-11.905,26.031
					c-11.203,6.131-23.452,7.176-32.961,6.669c-10.202-0.544-19.567-6-24.715-14.733l-0.077-0.131
					C3200.959,3227.958,3215.335,3228.729,3238.004,3224.643z"/>
				
					<linearGradient id="SVGID_00000139278419600612593730000007370495202034196908_" gradientUnits="userSpaceOnUse" x1="-2736.7959" y1="3150.0718" x2="-2633.8774" y2="3150.0718" gradientTransform="matrix(-1 0 0 1 523.5299 0)">
					<stop  offset="0" style="stop-color:#09005D"/>
					<stop  offset="1" style="stop-color:#1A0F91"/>
				</linearGradient>
				<path style="fill:url(#SVGID_00000139278419600612593730000007370495202034196908_);" d="M3173.915,3072.994h22.783
					c34.703-0.917,56.495,93.681,63.628,130.315c-2.579,9.757-8.729,18.883-22.322,21.333c-22.669,4.086-37.044,3.315-47.285-3.234
					c-18.748-31.886-28.043-78.586-32.511-105.84C3153.126,3084.573,3173.915,3072.994,3173.915,3072.994z"/>
			</g>
			
				<linearGradient id="SVGID_00000051356648023526824490000002005652789848201601_" gradientUnits="userSpaceOnUse" x1="-2683.3005" y1="3061.6753" x2="-2621.7061" y2="3061.6753" gradientTransform="matrix(-1 0 0 1 523.5299 0)">
				<stop  offset="0" style="stop-color:#FEBBBA"/>
				<stop  offset="1" style="stop-color:#FF928E"/>
			</linearGradient>
			<path style="fill:url(#SVGID_00000051356648023526824490000002005652789848201601_);" d="M3193.769,3025.509l12.651,50.317
				c1.551,6.169-1.402,12.551-7.106,15.478c-7.077,3.632-17.041,7.448-26.198,6.344c-4.306-0.52-7.884-3.553-9.307-7.608
				l-18.573-52.939L3193.769,3025.509z"/>
			
				<linearGradient id="SVGID_00000026842860315081427960000003963181198218560132_" gradientUnits="userSpaceOnUse" x1="-2090.2747" y1="2241.6777" x2="-2616.1504" y2="3103.1125" gradientTransform="matrix(-1 0 0 1 523.5299 0)">
				<stop  offset="0" style="stop-color:#09005D"/>
				<stop  offset="1" style="stop-color:#1A0F91"/>
			</linearGradient>
			<path style="fill:url(#SVGID_00000026842860315081427960000003963181198218560132_);" d="M2748.737,2362.804
				c0,0,113.055,706.693,111.193,710.577c0,0,31.225,14.192,65.265,1.809c0,0-10.223-377.778-34.179-522.627
				c0,0,192.947,337.659,254.22,505.908c0,0,31.958-3.811,58.411-21.22c0,0-207.75-607.771-263.176-688.723L2748.737,2362.804z"/>
			
				<linearGradient id="SVGID_00000121958273598480391980000007817305686381745341_" gradientUnits="userSpaceOnUse" x1="3303.48" y1="2103.6294" x2="3019.4912" y2="2357.1907">
				<stop  offset="0" style="stop-color:#4F52FF"/>
				<stop  offset="1" style="stop-color:#4042E2"/>
			</linearGradient>
			<path style="fill:url(#SVGID_00000121958273598480391980000007817305686381745341_);" d="M2886.502,2548.883
				c0.606,0,1.219-0.162,1.768-0.508c1.564-0.98,2.037-3.04,1.06-4.601l-42.249-67.482c-0.489-0.778-1.272-1.323-2.17-1.504
				l-31.092-6.258c-1.818-0.359-3.57,0.813-3.935,2.615c-0.362,1.809,0.809,3.57,2.615,3.935l29.683,5.972l41.487,66.264
				C2884.303,2548.328,2885.392,2548.883,2886.502,2548.883z"/>
			
				<linearGradient id="SVGID_00000151516288697017876980000016056242590931912067_" gradientUnits="userSpaceOnUse" x1="2675.5037" y1="2043.3662" x2="2239.3792" y2="1708.6664">
				<stop  offset="0" style="stop-color:#FEBBBA"/>
				<stop  offset="1" style="stop-color:#FF928E"/>
			</linearGradient>
			<path style="fill:url(#SVGID_00000151516288697017876980000016056242590931912067_);" d="M2229.931,1670.799
				c0,0,76.288,16.826,122.688,38.249c9.216,4.255,16.566,11.695,20.753,20.865c13.877,30.399,55.396,106.627,135.916,143.005
				c-11.595,15.391-30.266,47.405-38.4,101.213c-48.361-35.995-90.111-96.107-110.156-194.692c0,0-15.263,8.298-34.304-0.95
				c-10.06-4.886-21.675-11.816-30.394-17.266c-8.688-5.431-15.158-13.872-17.671-23.732c-3.319-13.019-1.364-24.467-1.364-36.748
				l-39.213-12.149C2237.785,1688.595,2225.997,1684.145,2229.931,1670.799z"/>
			
				<linearGradient id="SVGID_00000095308231447143985480000002649735326430036140_" gradientUnits="userSpaceOnUse" x1="2456.3726" y1="2485.0525" x2="2902.6624" y2="1927.1902">
				<stop  offset="0" style="stop-color:#FF928E"/>
				<stop  offset="1" style="stop-color:#FE7062"/>
			</linearGradient>
			<path style="fill:url(#SVGID_00000095308231447143985480000002649735326430036140_);" d="M2470.888,1974.131
				c8.134-53.809,26.805-85.823,38.4-101.213c50.02,22.599,115.086,29.824,197.942,1.113c7.637-2.646,15.604-4.196,23.682-4.67
				c44.108-2.586,189.459-7.305,309.733,32.431c25.313,8.363,45.815,27.075,56.38,51.322c32.535,74.664,85.21,244.702-61.02,330.547
				c-11.235-27.893-24.202-50.313-35.29-66.786c23.55-39.721,30.524-93.974-11.265-164.622
				c-30.471,82.279-44.767,202.335-47.754,255.466c-0.984,17.493,2.085,34.952,8.949,51.103l0.749,1.762
				c1.469,3.456-0.552,7.427-4.248,8.257c-82.322,18.492-167.943,13.468-193.523,11.355c-4.567-0.377-8.361-3.645-9.408-8.059
				c-40.031-168.674-40.122-283.732-30.321-356.466C2676.447,2024.042,2561.94,2041.899,2470.888,1974.131z"/>
			
				<linearGradient id="SVGID_00000121240556690809086740000014367618975507530924_" gradientUnits="userSpaceOnUse" x1="2935.0962" y1="1417.0983" x2="2813.3806" y2="1738.2916">
				<stop  offset="0" style="stop-color:#E1473D"/>
				<stop  offset="1" style="stop-color:#E9605A"/>
			</linearGradient>
			<path style="fill:url(#SVGID_00000121240556690809086740000014367618975507530924_);" d="M2713.731,2020.205
				c1.65,0,3.084-1.222,3.307-2.9c9.402-71.018,28.547-102.011,28.737-102.315c0.984-1.558,0.52-3.621-1.038-4.608
				c-1.552-0.977-3.614-0.524-4.601,1.031c-0.819,1.285-20.096,32.32-29.718,105.016c-0.241,1.828,1.044,3.506,2.872,3.748
				C2713.439,2020.196,2713.585,2020.205,2713.731,2020.205z"/>
			
				<linearGradient id="SVGID_00000012454226472612528850000015842356323098760868_" gradientUnits="userSpaceOnUse" x1="-2379.8528" y1="1969.3759" x2="-2353.1646" y2="1829.2623" gradientTransform="matrix(-1 0 0 1 523.5299 0)">
				<stop  offset="0" style="stop-color:#FEBBBA"/>
				<stop  offset="1" style="stop-color:#FF928E"/>
			</linearGradient>
			<path style="fill:url(#SVGID_00000012454226472612528850000015842356323098760868_);" d="M2916.888,1771.101
				c0,0,8.328,88.054,15.66,114.1c1.113,3.952-0.604,8.118-4.194,10.17c-12.445,7.111-42.293,18.709-83.122-1.3
				c-6.614-3.241-10.591-10.136-10.282-17.433l3.598-85.089L2916.888,1771.101z"/>
			<g>
				
					<linearGradient id="SVGID_00000016757192605977905950000014611157828208451997_" gradientUnits="userSpaceOnUse" x1="-2307.6382" y1="1712.3119" x2="-2459.9114" y2="1828.824" gradientTransform="matrix(-1 0 0 1 523.5299 0)">
					<stop  offset="0" style="stop-color:#FEBBBA"/>
					<stop  offset="1" style="stop-color:#FF928E"/>
				</linearGradient>
				<path style="fill:url(#SVGID_00000016757192605977905950000014611157828208451997_);" d="M2836.752,1658.452
					c0,0-26.637,61.189-28.426,93.305c-1.789,32.116-8.709,52.955,28.426,59.423c37.135,6.467,68.417-12.032,85.365-44.023
					c0,0,26.553-49.295,20.597-69.483C2936.757,1677.486,2836.752,1658.452,2836.752,1658.452z"/>
				
					<linearGradient id="SVGID_00000075122066817004423620000008073766315933466293_" gradientUnits="userSpaceOnUse" x1="-2414.8318" y1="1620.0597" x2="-2273.0132" y2="1802.6506" gradientTransform="matrix(-1 0 0 1 523.5299 0)">
					<stop  offset="0" style="stop-color:#09005D"/>
					<stop  offset="1" style="stop-color:#1A0F91"/>
				</linearGradient>
				<path style="fill:url(#SVGID_00000075122066817004423620000008073766315933466293_);" d="M2909.427,1744.156l-2.114-0.932
					c-2.691-1.186-3.842-4.39-2.49-7.002c5.236-10.118,15.445-33.303,2.257-38.711c-16.995-6.97-84.317-20.699-98.842-44.587
					c-13.96-22.958-1.591-52.594,16.998-61.023c1.244-0.564,2.71-0.116,3.349,1.091l1.549,2.931c1.06,2.006,4.024,1.702,4.655-0.478
					c0.606-2.093,3.389-2.499,4.544-0.651c4.465,7.147,16.519,18.733,48.754,24.682c45.812,8.455,76.1,26.994,76.854,58.651
					c0.048,2.011,2.187,3.129,3.905,2.082c3.383-2.061,8.796-3.029,16.03,3.054c12.581,10.579,7.433,38.022-20.148,60.595
					c-1.31,1.072-1.3,3.118,0.119,4.042c5,3.255,12.454,11-6.86,21.324c-19.977,10.679-34.895,9.803-40.638,8.855
					c-1.429-0.236-2.35-1.619-2.038-3.034l6.131-27.823c0.347-1.575-0.852-3.066-2.464-3.066H2909.427z"/>
				
					<linearGradient id="SVGID_00000049917814392834063620000002816699826953440437_" gradientUnits="userSpaceOnUse" x1="-2326.5259" y1="1687.627" x2="-2478.7991" y2="1804.139" gradientTransform="matrix(-1 0 0 1 523.5299 0)">
					<stop  offset="0" style="stop-color:#FEBBBA"/>
					<stop  offset="1" style="stop-color:#FF928E"/>
				</linearGradient>
				<path style="fill:url(#SVGID_00000049917814392834063620000002816699826953440437_);" d="M2908.273,1750.027
					c0,0,10.162-39.086,27.686-28.127c17.524,10.959-9.094,43.795-23.182,45.257L2908.273,1750.027z"/>
			</g>
			
				<linearGradient id="SVGID_00000160879743017410110660000014141429694110519978_" gradientUnits="userSpaceOnUse" x1="2291.6575" y1="1739.2703" x2="2351.5256" y2="1739.2703">
				<stop  offset="0" style="stop-color:#FF928E"/>
				<stop  offset="1" style="stop-color:#FE7062"/>
			</linearGradient>
			<path style="fill:url(#SVGID_00000160879743017410110660000014141429694110519978_);" d="M2340.387,1770.346
				c0.74,0,1.485-0.244,2.104-0.749c1.431-1.161,1.647-3.265,0.482-4.696c-2.884-3.551-28.486-34.852-38.349-40.421
				c-3.589-2.028-5.728-4.122-6.182-6.055c-0.219-0.923-0.073-1.961,0.448-3.141l30.079,6.029l17.043,14.622
				c1.393,1.203,3.507,1.044,4.706-0.359c1.203-1.399,1.041-3.506-0.359-4.709l-17.704-15.194c-0.435-0.371-0.955-0.625-1.517-0.739
				l-33.3-6.673c-1.336-0.27-2.675,0.292-3.427,1.409c-2.44,3.621-3.249,6.988-2.469,10.288c0.92,3.9,3.992,7.283,9.396,10.335
				c7.419,4.192,28.829,29.445,36.455,38.822C2338.452,1769.927,2339.416,1770.346,2340.387,1770.346z"/>
			
				<linearGradient id="SVGID_00000160189585783786305430000012720079702301940918_" gradientUnits="userSpaceOnUse" x1="2895.9792" y1="2336.2585" x2="3119.1248" y2="1954.2072">
				<stop  offset="0" style="stop-color:#FEBBBA"/>
				<stop  offset="1" style="stop-color:#FF928E"/>
			</linearGradient>
			<path style="fill:url(#SVGID_00000160189585783786305430000012720079702301940918_);" d="M2909.567,2325.979l-117.739,1.457
				l41.207-38.788c10.242-9.641,25.875-11.203,37.698-3.534c6.923,4.49,14.43,10.585,20.934,18.655
				c0,0,73.445-26.841,109.049-86.894c11.088,16.472,24.056,38.893,35.29,66.786
				C3004.089,2302.397,2962.714,2317.131,2909.567,2325.979z"/>
			<g>
				
					<linearGradient id="SVGID_00000127732105192693316770000000024463995154257305_" gradientUnits="userSpaceOnUse" x1="-71.7318" y1="2316.1719" x2="-312.5103" y2="2382.1631" gradientTransform="matrix(0.9988 -0.0494 0.0494 0.9988 2904.7969 -55.0328)">
					<stop  offset="0" style="stop-color:#09005D"/>
					<stop  offset="1" style="stop-color:#1A0F91"/>
				</linearGradient>
				<path style="fill:url(#SVGID_00000127732105192693316770000000024463995154257305_);" d="M2896.881,2341.164
					c-0.228,0.011-0.457,0.017-0.687,0.015l-298.867-0.323c-7.388-0.006-13.371-5.938-13.363-13.249
					c0.007-7.313,6.024-13.354,13.393-13.222l298.867,0.323c7.388,0.006,13.371,5.938,13.363,13.249
					C2909.578,2335.039,2903.949,2340.818,2896.881,2341.164z"/>
				
					<linearGradient id="SVGID_00000107559180108680110680000016311945144333432993_" gradientUnits="userSpaceOnUse" x1="2387.4812" y1="2400.1016" x2="2603.864" y2="2100.321">
					<stop  offset="0" style="stop-color:#09005D"/>
					<stop  offset="1" style="stop-color:#1A0F91"/>
				</linearGradient>
				<path style="fill:url(#SVGID_00000107559180108680110680000016311945144333432993_);" d="M2328.657,2072.677h248.899
					c18.361,0,35.074,10.484,42.906,26.916l115.066,241.413h-309.315c-11.833,0-22.464-7.154-26.813-18.042l-89.228-223.392
					C2305.016,2086.665,2314.63,2072.677,2328.657,2072.677z"/>
				
					<linearGradient id="SVGID_00000152252721363416218790000000892287851803003575_" gradientUnits="userSpaceOnUse" x1="2464.2722" y1="2202.4009" x2="2506.4141" y2="2202.4009">
					<stop  offset="0" style="stop-color:#4F52FF"/>
					<stop  offset="1" style="stop-color:#4042E2"/>
				</linearGradient>
				<path style="fill:url(#SVGID_00000152252721363416218790000000892287851803003575_);" d="M2504.009,2196.456
					c5.394,16.58,1.409,32.683-8.9,35.966c-10.309,3.283-23.039-7.497-28.432-24.077c-5.394-16.581-1.409-32.683,8.9-35.966
					C2485.886,2169.096,2498.615,2179.876,2504.009,2196.456z"/>
			</g>
		</g>
	</g>
</g>
</svg>
